<svg xmlns="http://www.w3.org/2000/svg" xmlns:xlink="http://www.w3.org/1999/xlink" id="svg1" width="814.858" height="989.875" style="display:block" version="1.2" viewBox="0 0 387.613 470.866"><defs id="defs1"><linearGradient id="linearGradient40"><stop id="stop40" offset="0" style="stop-color:#011bb6;stop-opacity:1"/><stop id="stop41" offset="1" style="stop-color:#010a4d;stop-opacity:1"/></linearGradient><linearGradient id="linearGradient36"><stop id="stop36" offset="0" style="stop-color:#fcffff;stop-opacity:1"/><stop id="stop37" offset="1" style="stop-color:#d0ddf1;stop-opacity:1"/></linearGradient><linearGradient id="linearGradient32"><stop id="stop33" offset="0" style="stop-color:#fcffff;stop-opacity:1"/><stop id="stop34" offset="1" style="stop-color:#e0e9f5;stop-opacity:1"/></linearGradient><linearGradient id="linearGradient30"><stop id="stop31" offset="0" style="stop-color:#fcffff;stop-opacity:1"/><stop id="stop32" offset=".673" style="stop-color:#abc6ea;stop-opacity:1"/></linearGradient><linearGradient id="linearGradient11"><stop id="stop11" offset="0" style="stop-color:#fcffff;stop-opacity:1"/><stop id="stop12" offset=".877" style="stop-color:#e0e9f5;stop-opacity:1"/></linearGradient><linearGradient xlink:href="#linearGradient32" id="linearGradient34" x1="106.883" x2="158.091" y1="326.737" y2="326.737" gradientUnits="userSpaceOnUse"/><linearGradient xlink:href="#linearGradient36" id="linearGradient37" x1="138.473" x2="445.121" y1="431.332" y2="431.332" gradientUnits="userSpaceOnUse"/><linearGradient xlink:href="#linearGradient30" id="linearGradient39" x1="137.602" x2="455.598" y1="454.216" y2="454.216" gradientUnits="userSpaceOnUse"/><linearGradient xlink:href="#linearGradient40" id="linearGradient41" x1="111.019" x2="341.129" y1="219.731" y2="219.731" gradientUnits="userSpaceOnUse"/><radialGradient xlink:href="#linearGradient11" id="radialGradient36" cx="128.105" cy="265.868" r="62.577" fx="128.105" fy="265.868" gradientTransform="matrix(1 0 0 1.2679 0 -64.525)" gradientUnits="userSpaceOnUse"/><color-profile xlink:href="../../../Windows/system32/spool/drivers/color/RSWOP.icm" id="color-profile1" name="Agfa-:-Swop-Standard"/></defs>--dark: #1e1e1e;
	--greygreen: #536869;
	--highlightgreen: #8eaa90;
	--green: #738c7f;
	--grey:#434243;<style id="style1">.s0{fill:#1e1e1e}.s2{opacity:1;fill:#434343}</style><g id="layer1" transform="matrix(1.05059 0 0 1.05059 -80.025 -118.51)"><path id="path31" d="M139.986 560.065c-9.587-.132-17.686-.405-17.998-.607-.82-.53-.77-.935 1.505-12.343 2.394-12.003 5.647-24.928 11.728-46.604 5.05-18 5.53-20.33 7.676-37.128 3.971-31.1 5.378-38.224 9.052-45.824 3.35-6.93 10.435-13.658 23.354-22.178 7.314-4.823 10.238-7.366 10.655-9.264.93-4.232-5.438-15.68-12.367-22.235-1.515-1.434-3.257-3.248-3.87-4.033-.848-1.081-1.811-1.61-3.993-2.19a316.863 316.863 0 0 1-4.934-1.357c-1.936-.557-2.793-.44-14.422 1.977-17.037 3.54-18.738 3.772-20.266 2.771-3.944-2.584-8.378-8.294-9.89-12.736-.575-1.685-.68-3.004-.449-5.627.543-6.165-1.341-9.823-7.248-14.072-3.319-2.388-3.594-2.714-4.16-4.925-1.487-5.813-4.897-10.388-13.155-17.652l-2.826-2.486.006-2.716c.007-3.413 1.028-5.726 3.715-8.412l2.056-2.056-2.327-1.307c-3.58-2.011-13.995-9.06-14.948-10.12-.679-.753-.809-1.439-.645-3.415.274-3.296 2.6-7.808 10.725-20.798 8.764-14.011 9.876-16.52 8.5-19.18-.379-.732-1.51-1.9-2.515-2.596-3.31-2.294-3.67-3.7-3.67-14.325.001-10.944.418-15.91 2.429-28.948.825-5.355 1.458-11.005 1.405-12.557-.076-2.203.138-3.286.978-4.944.59-1.167 1.074-2.676 1.074-3.352 0-.802.383-1.48 1.1-1.95.605-.396 2.326-2.508 3.824-4.693 3.477-5.07 11.785-14.088 17.036-18.49 10.746-9.006 27.203-18.008 33.6-18.377.944-.055 6.06-1.59 11.37-3.411 13.535-4.645 16.581-5.36 32.455-7.621 2.74-.39 9.667-.925 15.395-1.188 12.55-.576 50.34-.24 54.56.486 3.343.576 18.691 5.723 34.41 11.541 5.853 2.167 13.9 4.93 17.885 6.142 5.732 1.744 7.216 2.356 7.107 2.934-.075.401-1.655 4.08-3.51 8.177-5.535 12.218-6.737 16.041-9.123 29.02-1.517 8.256-1.68 18.322-.442 27.357.946 6.9.58 10.525-1.776 17.613-1.678 5.05-2.88 7.391-7.11 13.836-1.47 2.241-3.58 5.879-4.69 8.083-2.282 4.531-6.041 13.518-6.031 14.416.004.326 1.786 1.747 3.962 3.157 7.224 4.682 14.615 11.902 17.096 16.7 1.436 2.777 2.681 10.846 1.673 10.846-.194 0-1.57-1.238-3.056-2.751-2.817-2.867-5.505-4.71-7.855-5.384-1.097-.314-1.845-.165-3.64.73-3.558 1.773-3.443 2.73.936 7.784 6.723 7.76 4.708 17.844-5.953 29.794l-4.302 4.822-.226-2.217c-.179-1.746-.655-2.762-2.25-4.795-1.113-1.419-2.081-2.522-2.152-2.452-.317.317 1.706 7.08 2.515 8.412.712 1.17.853 1.987.662 3.837-.29 2.804.24 4.002 3.499 7.919 2.425 2.914 5.356 5.31 9.665 7.902 2.627 1.58 11.15 4.569 24.683 8.657 7.67 2.316 17.383 5.563 20.202 6.753 1.035.438 10.474 2.012 22.043 3.676 32.758 4.714 49.43 7.648 56.06 9.866l2.944.984.114 96.342c.091 76.854 0 96.378-.453 96.518-.913.283-268.26.528-287.402.264zm147.606-234.566c0-.256-.61-1.673-1.354-3.149-1.55-3.068-5.76-7.76-9.652-10.755-1.465-1.127-3.05-2.685-3.524-3.461-.474-.777-.862-1.113-.863-.747 0 .367 1.153 1.69 2.564 2.943 5.833 5.177 9.496 9.155 10.914 11.85 1.707 3.244 1.699 3.204.67 3.473-.597.155-.54.22.226.26.56.028 1.019-.158 1.019-.414zm-13.585-23.417c-.001-.187-.409.326-.906 1.142-.497.815-.904 1.729-.904 2.03 0 .302.408-.212.906-1.14.498-.93.905-1.844.904-2.032zm-51.306-62.23c-.144-.361-.252-.254-.273.274-.02.477.087.744.237.594.15-.15.167-.541.036-.868zm31.046-47.324c-.56-.107-1.477-.107-2.038 0-.56.108-.102.197 1.019.197 1.12 0 1.579-.089 1.019-.197z" style="display:block;fill:#1832fc;fill-opacity:1;stroke:none;stroke-width:.95185;stroke-opacity:1"/><path id="Path 0" d="M214 114.5c-20.427 2.453-22.054 3.299-44.4 11.3.2-.5-1.5-.3-3.9.3-2.3.6-7.4 2.6-11.2 4.6-3.8 1.9-9.7 5.5-13 7.9-3.3 2.4-8.1 6.2-10.6 8.6-2.5 2.4-7.4 7.6-10.8 11.6-3.3 3.9-8.817 13.904-8.717 14.404.2.6 7.293-3.588 10.435-5.532 2.7-2.3 7.698-4.269 9.598-4.869 1.9-.5 5.424.564 9.024.564 3.6 0 9.168.9 13.268 1.9 4.1 1 11.376 4.764 14.976 6.564 3.6 1.8 8.31 4.586 11.21 6.386 2.8 1.9 11.93 9.571 13.13 9.471C216.188 206.368 233.29 269.714 163.2 312c-.4 0-1.3-1.1-2-2.5-.8-1.667-2.033-2.5-3.7-2.5-1.667 0-2.667-.667-3-2-.3-1.1-1.7-2.9-3.3-3.9-1.5-1-6.8-3.5-11.7-5.5-5.9-2.3-10.2-4.8-12.5-7.1-1.9-1.9-3.817-1.326-4.817-1.326-.9 0-3.483-1.474-5.183-.674-1.7.8-4.8 3.2-7 5.3-2.7 2.5-4.2 4.8-4.6 7.2-.3 1.9-.1 4.6.3 5.9l3.94.367c16.266-6.882 27.71 10.883 39.56 11.733 1.3-.1 3 .7 3.9 1.7 1 1.1 1.9 4.5 2.3 9.1 1.033 6.35-1.947 9.879-6.7 14-3.483 3.741-17.327 5.835-14.417 9.751 1.388 1.867 2.074 5.628 9.717 10.849 3.1.5 22.946-4.24 32.146-6.04 60.359 22.345 85.042-56.728 78.297-88.395-.8-3.7-12.544-9.073-11.944-15.673.4-5.5-3.099-10.292-2.599-12.092.6-1.7-1.306-6.372-.706-6.372.6 0 5.406 4.172 7.306 5.372 2.4 1.6 3.4 3.1 3.4 4.8.1 1.4-18.185 9.687 1.3 3.8 45.846-13.851 10.485-28.856 3.6-45.7 1.7-2.9 4.3-5.2 7.2-6.7 2.5-1.3 6.1-2.4 8-2.4 1.9 0 5 .9 6.7 2 1.8 1.1 4.6 3.9 6.1 6.2 1.6 2.4 3.4 5.9 4.1 7.8.6 1.9 1.1 5.4 1.1 7.7 0 2.4 1.716 5.367.816 9.067-.8 3.8-2.4 9.3-3.5 12.3-1.2 3-6.016 10.133-7.816 13.433-17.19 13.228-2.78 32.502 1.5 46.5.526 1.721-1.163-2.24-4.163-3.14-2.988-8.878-5.968-7.504-10.577-10.68l-7.76 2.12c.297 7.209 2.128 6.999 12.175 21.97 1.316-1.013 5.045-2.95 11.525.63 2.9 1.7 7.5 5.3 10.3 8.1 2.7 2.7 5.7 5 6.5 5 .8 0 2.6 1.1 4 2.5s2.9 2.2 3.3 1.8c.5-.5-.7-3.1-2.5-5.8-1.9-2.8-5.3-6.2-7.6-7.8-2.3-1.5-4.5-3.7-4.8-5-.3-1.3 0-2.8 1-3.7l5.6-10.5c.598-.8 1.27-2.826 1.799-2.226 1.355 1.537 1.145 1.726 1.701 2.926.2 1.3 1.1 6.4 2 11.3.8 4.9 4.7 7.743 5.5 8.943.8 1.3-.5 4.557.1 4.557s3.23-3.593 6.63-7.093c3.7-3.7 5.901-9.098 6.901-11.798 1.2-3 1.112-6.044.712-8.544-.4-2.5-.414-2.821-2.843-6.365-2.4-2.6-4.4-5.3-4.5-6 0-.6.6-1.5 1.2-1.8.7-.4.928-.732 3.475-1.74 5.144-.12 10.281 6.468 12.5 8.74 1.1-1 .025-8-1.175-10.6-.8-1.8-3.5-5.5-6-8.2-2.5-2.7-7-6.5-10-8.4-3-1.9-5.6-3.5-5.7-3.6-.1-.1 1.4-3.9 3.4-8.6 2-4.7 5-10.5 6.8-13 1.8-2.5 4.4-6.8 5.8-9.5 1.3-2.8 3-7.7 3.7-11 1-4.8 1-7.6 0-14-.8-4.8-1-11.4-.7-16.5.4-4.7 2.2-14.8 4.2-22.5 1.9-7.7 9.992-22.533 9.992-24.633-12.68-3.257-28.034-9.367-40.992-14.067-6.1-2.2-13.5-4.7-16.5-5.4-4.1-1-13.1-1.3-35-1.3-20.5.1-31.2.5-35 1.4z" class="s0" style="fill:#010a4d;fill-opacity:1;stroke:none;stroke-opacity:.596078"/><path id="Path 16" d="m256.033 301.736-65.686 60.58c-.4 1.9 2.053 3.884 3.553 5.684 1.2 1.4 3.2 4.1 4.5 6 1.3 1.9 3 5.4 3.7 7.7 1.1 3.2 1.1 4.8.3 6.5-.6 1.3-4.1 4.1-7.9 6.3-3.7 2.2-9.5 6.3-12.9 9.1-3.3 2.7-7.5 6.8-9.2 9-1.8 2.1-4.1 6.6-5.2 9.9-1.1 3.3-2.7 10.3-3.6 15.5-.8 5.2-2.2 16-3.1 24-1 8-2.3 17.2-3 20.5-.7 3.3-3.2 12.5-5.5 20.5s-5.5 19.5-7 25.5-3.5 15-4.4 20c-.9 5-1.9 9.8-2.1 10.8-.5 1.6 5 1.7 105.3 1.6l201.29-.4.024-192.519c.906-4.207-84.56-14.8-84.414-15.181.533-.867.367-1.033-.5-.5-8.525-3.115-17.41-5.034-26.9-4.933-9.377-.134-16.69 2.942-23.181 7.297z" class="s2" style="fill:url(#linearGradient37);fill-opacity:1"/><path id="Path 6" d="M129.712 162.705c-3.578.7-6.952 1.8-7.463 2.3-.614.6-1.738 1-2.659 1-.92 0-3.067 1.2-4.702 2.8-2.659 2.3-3.374 4-4.703 12.2-.92 5.199-2.25 13.598-2.965 18.498-.613 5-1.227 13.299-1.227 18.498 0 5.2.307 10.5.614 11.8.408 1.2 1.942 3 3.476 3.999 1.84 1.1 2.862 2.6 2.862 4.2 0 6.859-21.971 32.616-19.963 40.144.511 1.9 3.524 3.55 5.756 5.23 2.874 1.709 11.966 8.271 14.514 8.321.196-3.713 4.111-2.768 8.79-4.015 5.338 1.422 42.064 30.956 46.178 32.172 23.181 6.855 62.469-91.814 45.766-69.575 1.778-30.375 4.124-78.9-49.718-83.272-8.373-4.098-5.436-3.158-7.668-2.3-.41-.4-3.74-1.144-7.025-1.895-7.471-1.708-12.45-1.716-19.863-.105z" class="s2" style="fill:url(#radialGradient36);fill-opacity:1;stroke:none;stroke-width:1.01108;stroke-opacity:.596078"/><path id="Path 0-0-8-2" d="M199.516 189.52c-28.041-21.643-4.732 5.455-3.62 7.336 8.548 28.754 10.798 43.575 10.314-1.57 3.681-4.932 5.524-13.397 6.914-17.631z" class="s0" style="fill:#010a4d;fill-opacity:1;stroke:none;stroke-width:1.47669;stroke-opacity:.596078"/><path id="Path 4" d="M133.922 217.396c-2.212 1.709-3.068 1.953-5.507 7.691 0 4.517.614 8.057 1.35 8.057.737 0 1.474-1.1 1.842-2.442.368-1.465 3.2-3.35 4.363-4.252 1.778-1.38 1.125-1.288.425 6.45 3.447 4.284 2.379 5.858 3.56 4.516 1.803-2.69 3.05-2.156 4.755-5.21.614-1.22 1.628-2.48 1.383-4.555-.369-2.198 0-4.15 1.104-5.005.86-.732 2.947-1.831 4.665-2.32 2.824-.976 2.946-.854 2.087 1.954-.737 2.319-.614 2.807.982 1.953.982-.488 2.087-.855 2.455-.855.368 0 .614-1.098.614-2.441 0-1.343-.86-3.296-1.841-4.272-1.35-1.343-4.542-1.831-11.908-1.71-5.647 0-8.733 1.83-10.33 2.441z" class="s0" style="stroke-width:1.22411"/><path id="Path 5" d="M145 200.5c-9.67 1.877-9.646 1.945-18.353 6.044-4.485 5.537-13.082 11.73-12.33 11.797 4.3.382 10.225-1.894 14.293-3.339 5.448-1.935 5.024-3.722 13.09-5.902 15.361-1.227 9.437 2.196 23.662 1.484 4.016-4.828 9.367-6.326 7.727-6.813-5.52-1.64-20.964-3.122-28.089-3.271z" class="s0"/><path id="Path 8" d="M106.1 280c-1.4.5-2.4 1.4-2.3 2 .1.6 1.8.8 4 .6 2-.3 5.2-.7 7-1 1.7-.3 3-1 2.7-1.6-.3-.6-2.4-1-4.7-.9-2.4 0-5.4.4-6.7.9z" class="s0"/><path id="Path 15" d="M107.397 304.013c-1.9 1.9 1.703 3.087 6.903 8.187 4.4 4.3 6.95 10.449 7.55 14.149-.773 1.026 11.573 5.002 11.15 15.351-.885 4.497-.642 6.016 1.171 9.491.662 1.27 1.6 2.076 4.175 2.017 13.11-.302 32.672-36.772 7.714-43.578l-10.49-7.15c-.6-.3-3.416-.341-3.416.259 0 .5-.054 4.261-1.154 4.261-1.1 0-3.738-4.486-6.438-5.086-2.6-.6-6.441-1.138-8.341-1.538-2.7-.7-7.324 2.037-8.824 3.637z" class="s2" style="fill:url(#linearGradient34);fill-opacity:1"/><path id="Path 9" d="M261.869 194.969c-2.3 1.2-5.773 4.213-7.373 6.613-1.7 2.4-3.386 5.96-3.686 7.66-.6 2.7.59 3.658 4.39 6.558 15.535 7.551 28.02 15.409 6.767 26.967-3.848 2.117-7.011 3.115-12.067 1.233 0-1.7-1-3.2-3.4-4.8-1.9-1.2-8.025-6.957-8.525-6.957-.6 0 2.525 6.257 1.925 7.957-.065.234-2.773 16.22 10.015 23.154 16.617 18.56-29.407 66.938-60.215 91.234-2.225-.908-5.295-.291-5.595.609-.3 1.2 2.695 6.103 4.595 7.703l2.8 2.4c.56-16.381 61.172-3.094 54.157-38.169-.07-1.762-1.587-7.71-.539-6.483 2.503 2.928 6.02 4.918 6.082 8.352.808 5.654-.374 22.858 1.256 18.11 5.224-15.222 11.229 26.176 11.544 40.09 0 1.6-.9 4.5-1.9 6.5-1 2.1-2.82 2.667-3.82 3.667l-6.884 3.954c3.382 1.305 5.574 3.149 7.304 4.879 15.359-15.75 28.687-15.18 47.15-8.442-2.326-7.658-6.18-11.802-8.95-18.558 9.09-28.03 64.973-25.594 68.753-25.519 1.443.029-7.6-3.41-21.153-7.481-11-3.2-21.6-6.7-23.5-7.7-1.9-.9-5.3-3.2-7.5-4.9-2.2-1.8-5-4.9-6.3-6.9-1.5-2.6-1.9-4.2-1.3-5.5.6-1.2.3-2.4-1-4.2-1.2-1.5-1.93-6.283-2.83-11.683-.8-4.9-2.37-9.817-2.57-11.117-.3-1.2-1.2-3.481-2-3.481s-1.067 2.108-1.5 2.781c-3.614 5.615-3.53 4.996-5.6 10.5-1 .9-1.3 2.4-1 3.7.3 1.3 2.5 3.5 4.8 5 2.3 1.6 5.7 5 7.6 7.8 1.8 2.7 3 5.3 2.5 5.8-.4.4-1.9-.4-3.3-1.8s-3.2-2.5-4-2.5c-.8 0-3.8-2.3-6.5-5-2.8-2.8-7.4-6.4-10.3-8.1-3.8-2.1-5.238-4.17-6.338-3.47-1 .7-2.662 2.17-4.462 1.27-1.4-.6-3-2.7-3.7-4.5-4.222-8.689-5.205-9.175-9-12.5l-.2-3.4c2.66 3.572 6.539-2.68 8.764 3.211C267.462 286.276 274 298.5 275.7 299c3 .9 4.076 1.576 4.076-.224 4.618-15.3-4.328-25.787-9.575-35.81-.3-3.2 6.049-6.424 8.749-11.224 1.8-3.3 7.22-7.896 8.42-10.896 1.1-3 3.907-7.534 4.707-11.334.9-3.7-4.077-10.412-4.077-12.812 0-2.3-.5-5.8-1.1-7.7-.7-1.9-2.5-5.4-4.1-7.8-1.5-2.3-4.3-5.1-6.1-6.2-1.7-1.1-4.8-2-6.7-2-1.9 0-5.831.669-8.131 1.969z" style="fill:#d0ddf1;fill-opacity:1;opacity:1"/><path id="Path 16-4" d="M202.027 388.27c-.6 1.3-4.1 4.1-7.9 6.3-3.7 2.2-9.5 6.3-12.9 9.1-3.3 2.7-7.5 6.8-9.2 9-1.8 2.1-4.1 6.6-5.2 9.9-1.1 3.3-2.7 10.3-3.6 15.5-.8 5.2-2.2 16-3.1 24-1 8-2.3 17.2-3 20.5-.7 3.3-3.2 12.5-5.5 20.5s-5.5 19.5-7 25.5-3.5 15-4.4 20c-.9 5-1.9 9.8-2.1 10.8-.5 1.6 5 1.7 105.3 1.6l201.29-.4.024-192.518c.906-4.207-84.56-14.8-84.414-15.181.534-.867.367-1.033-.5-.5-8.525-3.115-17.409-5.034-26.899-4.933-9.377-.134-16.69 2.942-23.182 7.297-33.52 30.274-68.7 47.261-107.719 33.536z" class="s2" style="fill:url(#linearGradient39);fill-opacity:1;stroke:none;stroke-opacity:.596078"/><path id="Path 0-0" d="M111.243 172.338c.8 4.9-2.89 6.19-2.09 7.39.8 1.3-.5 4.558.1 4.558s3.228-3.593 6.628-7.093c3.7-3.7 5.903-9.098 6.903-11.798z" class="s0" style="display:inline;fill:#010a4d;fill-opacity:1;stroke:none;stroke-opacity:.596078"/><path id="Path 0-0-8" d="M120.025 165.841c.8 4.9-2.89 6.191-2.09 7.391.8 1.3-.5 4.557.1 4.557s3.23-3.593 6.63-7.093c3.7-3.7 5.901-9.098 6.901-11.798z" class="s0" style="display:inline;fill:#010a4d;fill-opacity:1;stroke:none;stroke-opacity:.596078"/><path id="Path 0-0-8-2-0" d="M161.674 157.74c1.113 7.684 13.209 21.153 14.321 23.035 7.224 2.717.417 22.768 7.755 11.038.443-.708 4.066-8.563 2.387-14.679 3.681-4.93 5.523-13.396 6.914-17.63z" class="s0" style="display:inline;fill:#010a4d;fill-opacity:1;stroke:none;stroke-width:1.47669;stroke-opacity:.596078"/><path id="Path 0-2" d="M213.637 114.48c-20.427 2.453-22.054 3.298-44.4 11.3.2-.5-1.5-.3-3.9.3-2.3.6-7.4 2.6-11.2 4.6-3.8 1.9-9.7 5.5-13 7.9-3.3 2.4-8.1 6.2-10.6 8.6-2.5 2.4-7.4 7.6-10.8 11.6-3.3 3.9-8.817 13.904-8.717 14.404.2.6 7.294-3.589 10.435-5.532 2.7-2.3 7.698-4.269 9.598-4.869 1.9-.5 5.424.564 9.024.564 3.6 0 9.168.9 13.268 1.9 4.1 1 11.376 4.764 14.976 6.564 3.6 1.8 8.311 4.585 11.211 6.385 2.8 1.9 11.93 9.572 13.13 9.472l46.875 52.512c.6-1.7-1.305-6.372-.705-6.372s5.405 4.172 7.305 5.372c2.4 1.6 3.4 3.1 3.4 4.8.1 1.4-18.185 9.687 1.3 3.8 45.846-13.852 10.486-28.856 3.6-45.7 1.7-2.9 4.3-5.2 7.2-6.7 2.5-1.3 6.1-2.4 8-2.4 1.9 0 5 .9 6.7 2 1.8 1.1 4.6 3.9 6.1 6.2 1.6 2.4 3.4 5.9 4.1 7.8.6 1.9 1.1 5.4 1.1 7.7 0 2.4 1.716 5.367.816 9.067-.8 3.8-2.4 9.3-3.5 12.3-1.2 3-6.016 10.133-7.816 13.433-17.19 13.228-2.78 32.502 1.5 46.5.527 1.721-1.162-2.24-4.162-3.14-2.989-8.879-5.969-7.504-10.577-10.68l-7.76 2.12c.297 7.209 2.128 6.999 12.175 21.97 1.316-1.013 5.045-2.951 11.524.63 2.9 1.7 7.5 5.3 10.3 8.1 2.7 2.7 5.7 5 6.5 5 .8 0 2.6 1.1 4 2.5s2.9 2.2 3.3 1.8c.5-.5-.7-3.1-2.5-5.8-1.9-2.8-5.3-6.2-7.6-7.8-2.3-1.5-4.5-3.7-4.8-5-.3-1.3 0-2.8 1-3.7l5.6-10.5c.598-.8 1.27-2.826 1.8-2.226 1.355 1.537 1.144 1.726 1.7 2.926.2 1.3 1.1 6.4 2 11.3.8 4.9 4.701 7.743 5.501 8.943.8 1.3-.5 4.557.1 4.557s3.229-3.593 6.629-7.093c3.7-3.7 5.902-9.098 6.902-11.798 1.2-3 1.112-6.044.712-8.544-.4-2.5-.414-2.821-2.844-6.365-2.4-2.6-4.4-5.3-4.5-6 0-.6.6-1.5 1.2-1.8.7-.4.929-.732 3.475-1.74 5.144-.12 10.282 6.467 12.501 8.739 1.1-1 .024-8-1.176-10.6-.8-1.8-3.5-5.5-6-8.2-2.5-2.7-7-6.5-10-8.4-3-1.9-5.6-3.5-5.7-3.6-.1-.1 1.4-3.9 3.4-8.6 2-4.7 5-10.5 6.8-13 1.8-2.5 4.4-6.8 5.8-9.5 1.3-2.8 3-7.7 3.7-11 1-4.8 1-7.6 0-14-.8-4.8-1-11.4-.7-16.5.4-4.7 2.2-14.8 4.2-22.5 1.9-7.7 9.992-22.532 9.992-24.632-12.679-3.257-28.034-9.368-40.992-14.067-6.1-2.2-13.5-4.7-16.5-5.4-4.1-1-13.1-1.3-35-1.3-20.5.1-31.2.5-35 1.4z" class="s0" style="display:inline;fill:url(#linearGradient41);fill-opacity:1;stroke:none;stroke-opacity:.596078"/></g></svg>