<?xml version="1.0" encoding="UTF-8" standalone="no"?>
<svg
   version="1.2"
   viewBox="0 0 445 561"
   width="980"
   height="1235"
   id="svg1"
   sodipodi:docname="meVectoricedblue.svg"
   inkscape:version="1.3 (0e150ed6c4, 2023-07-21)"
   xmlns:inkscape="http://www.inkscape.org/namespaces/inkscape"
   xmlns:sodipodi="http://sodipodi.sourceforge.net/DTD/sodipodi-0.dtd"
   xmlns:xlink="http://www.w3.org/1999/xlink"
   xmlns="http://www.w3.org/2000/svg"
   xmlns:svg="http://www.w3.org/2000/svg"
   xmlns:rdf="http://www.w3.org/1999/02/22-rdf-syntax-ns#"
   xmlns:cc="http://creativecommons.org/ns#"
   xmlns:dc="http://purl.org/dc/elements/1.1/"><defs
   id="defs1">
  <linearGradient
     id="linearGradient40"
     inkscape:collect="always">
    <stop
       style="stop-color:#011bb6;stop-opacity:1;"
       offset="0"
       id="stop40" />
    <stop
       style="stop-color:#010a4d;stop-opacity:1;"
       offset="1"
       id="stop41" />
  </linearGradient>
  <linearGradient
     id="linearGradient36"
     inkscape:collect="always">
    <stop
       style="stop-color:#fcffff;stop-opacity:1;"
       offset="0"
       id="stop36" />
    <stop
       style="stop-color:#d0ddf1;stop-opacity:1;"
       offset="1"
       id="stop37" />
  </linearGradient>
  <linearGradient
     id="linearGradient32"
     inkscape:collect="always">
    <stop
       style="stop-color:#fcffff;stop-opacity:1;"
       offset="0"
       id="stop33" />
    <stop
       style="stop-color:#e0e9f5;stop-opacity:1;"
       offset="1"
       id="stop34" />
  </linearGradient>
  <linearGradient
     id="linearGradient30"
     inkscape:collect="always">
    <stop
       style="stop-color:#fcffff;stop-opacity:1;"
       offset="0"
       id="stop31" />
    <stop
       style="stop-color:#abc6ea;stop-opacity:1;"
       offset="0.67250001"
       id="stop32" />
  </linearGradient>
  <linearGradient
     id="linearGradient11"
     inkscape:collect="always">
    <stop
       style="stop-color:#fcffff;stop-opacity:1;"
       offset="0"
       id="stop11" />
    <stop
       style="stop-color:#e0e9f5;stop-opacity:1;"
       offset="0.8775"
       id="stop12" />
  </linearGradient>
  <color-profile
     name="Agfa-:-Swop-Standard"
     xlink:href="../../../../../../Windows/system32/spool/drivers/color/RSWOP.icm"
     id="color-profile2" />
  <linearGradient
     inkscape:collect="always"
     xlink:href="#linearGradient32"
     id="linearGradient34"
     x1="106.88277"
     y1="326.73743"
     x2="158.09064"
     y2="326.73743"
     gradientUnits="userSpaceOnUse" />
  <radialGradient
     inkscape:collect="always"
     xlink:href="#linearGradient11"
     id="radialGradient36"
     cx="128.10471"
     cy="265.86752"
     fx="128.10471"
     fy="265.86752"
     r="62.57666"
     gradientTransform="matrix(1,0,0,1.2679009,0,-64.524848)"
     gradientUnits="userSpaceOnUse" />
  <linearGradient
     inkscape:collect="always"
     xlink:href="#linearGradient36"
     id="linearGradient37"
     x1="138.4733"
     y1="431.33157"
     x2="445.12088"
     y2="431.33157"
     gradientUnits="userSpaceOnUse" />
  <linearGradient
     inkscape:collect="always"
     xlink:href="#linearGradient30"
     id="linearGradient39"
     x1="137.6022"
     y1="454.21613"
     x2="455.59787"
     y2="454.21613"
     gradientUnits="userSpaceOnUse" />
  <linearGradient
     inkscape:collect="always"
     xlink:href="#linearGradient40"
     id="linearGradient41"
     x1="111.01898"
     y1="219.73131"
     x2="341.12894"
     y2="219.73131"
     gradientUnits="userSpaceOnUse" />
</defs>
<sodipodi:namedview
   id="namedview1"
   pagecolor="#141414"
   bordercolor="#000000"
   borderopacity="0.25"
   inkscape:showpageshadow="true"
   inkscape:pageopacity="0.0"
   inkscape:pagecheckerboard="0"
   inkscape:deskcolor="#d1d1d1"
   inkscape:zoom="0.6582996"
   inkscape:cx="252.16482"
   inkscape:cy="632.69065"
   inkscape:window-width="1920"
   inkscape:window-height="1009"
   inkscape:window-x="1912"
   inkscape:window-y="-8"
   inkscape:window-maximized="1"
   inkscape:current-layer="layer2" />
&#10;	&#10;	--dark: #1e1e1e;&#10;	--greygreen: #536869;&#10;	--highlightgreen: #8eaa90;&#10;	--green: #738c7f;&#10;	--grey:#434243;&#10;	&#10;	<title
   id="title1">meVectoriced</title>
<style
   id="style1">&#10;		.s0 { fill: #1e1e1e } &#10;		.s1 { opacity: 1;fill: #536869} &#10;		.s2 { opacity: 1;fill: #434343} &#10;	</style>
<metadata
   id="metadata10">
  <rdf:RDF>
    <cc:Work
       rdf:about="">
      <dc:title>meVectoriced</dc:title>
    </cc:Work>
  </rdf:RDF>
</metadata>
<g
   inkscape:groupmode="layer"
   id="layer2"
   inkscape:label="shadow">
  <g
     id="Background"
     transform="translate(593.3226,-87.827359)"
     style="fill:#1832fc;fill-opacity:1;stroke:none"
     inkscape:transform-center-x="144.21771"
     inkscape:transform-center-y="-6.900369">
    <path
       id="Path 0-5"
       class="s0"
       d="m -397.5646,201.63815 c -20.42717,2.45343 -22.05432,3.29859 -44.4,11.3 0.2,-0.5 -1.5,-0.3 -3.9,0.3 -2.3,0.6 -7.4,2.6 -11.2,4.6 -3.8,1.9 -9.7,5.5 -13,7.9 -3.3,2.4 -8.1,6.2 -10.6,8.6 -2.5,2.4 -7.4,7.6 -10.8,11.6 -3.3,3.9 -8.81712,13.90438 -8.71712,14.40438 0.2,0.6 7.29339,-3.58887 10.43505,-5.53263 2.7,-2.3 7.69758,-4.26831 9.59758,-4.86831 1.9,-0.5 5.42414,0.56379 9.02414,0.56379 3.6,0 9.1681,0.9 13.2681,1.9 4.1,1 11.37586,4.76379 14.97586,6.56379 3.6,1.8 8.31102,4.58563 11.21102,6.38563 2.8,1.9 11.92958,9.57144 13.12958,9.47144 23.16404,18.68029 40.2661,82.02617 -29.82421,124.31191 -0.4,0 -1.3,-1.1 -2,-2.5 -0.8,-1.66667 -2.03333,-2.5 -3.7,-2.5 -1.66667,0 -2.66667,-0.66667 -3,-2 -0.3,-1.1 -1.7,-2.9 -3.3,-3.9 -1.5,-1 -6.8,-3.5 -11.7,-5.5 -5.9,-2.3 -10.2,-4.8 -12.5,-7.1 -1.9,-1.9 -3.81682,-1.32571 -4.81682,-1.32571 -0.9,0 -3.48318,-1.47429 -5.18318,-0.67429 -1.7,0.8 -4.8,3.2 -7,5.3 -2.7,2.5 -4.2,4.8 -4.6,7.2 -0.3,1.9 -0.1,4.6 0.3,5.9 l 3.94064,0.3673 c 16.26578,-6.88199 27.70896,10.88302 39.55936,11.7327 1.3,-0.1 3,0.7 3.9,1.7 1,1.1 1.9,4.5 2.3,9.1 1.03341,6.35011 -1.94673,9.87903 -6.7,14 -3.48286,3.74135 -17.32741,5.83501 -14.41692,9.75096 1.38765,1.86702 2.07389,5.6282 9.71692,10.84904 3.1,0.5 22.94576,-4.24022 32.14576,-6.04022 60.3592,22.34569 85.04232,-56.72824 78.2976,-88.39484 -0.8,-3.7 -12.54438,-9.07251 -11.94438,-15.67251 0.4,-5.5 -3.09898,-10.29243 -2.59898,-12.09243 0.6,-1.7 -1.3056,-6.37154 -0.7056,-6.37154 0.6,0 5.4056,4.17154 7.3056,5.37154 2.4,1.6 3.4,3.1 3.4,4.8 0.1,1.4 -18.1853,9.68705 1.3,3.8 45.84603,-13.85137 10.48541,-28.85586 3.6,-45.7 1.7,-2.9 4.3,-5.2 7.2,-6.7 2.5,-1.3 6.1,-2.4 8,-2.4 1.9,0 5,0.9 6.7,2 1.8,1.1 4.6,3.9 6.1,6.2 1.6,2.4 3.4,5.9 4.1,7.8 0.6,1.9 1.1,5.4 1.1,7.7 0,2.4 1.71588,5.3673 0.81588,9.0673 -0.8,3.8 -2.4,9.3 -3.5,12.3 -1.2,3 -6.01588,10.1327 -7.81588,13.4327 -17.1904,13.22821 -2.78052,32.50182 1.5,46.5 0.52636,1.72132 -1.16255,-2.24022 -4.16255,-3.14022 -2.98891,-8.87826 -5.96876,-7.50333 -10.5773,-10.68008 l -7.76015,2.1203 c 0.29708,7.20868 2.12849,6.99897 12.17524,21.97032 1.31615,-1.0131 5.04519,-2.95114 11.52476,0.62968 2.9,1.7 7.5,5.3 10.3,8.1 2.7,2.7 5.7,5 6.5,5 0.8,0 2.6,1.1 4,2.5 1.4,1.4 2.9,2.2 3.3,1.8 0.5,-0.5 -0.7,-3.1 -2.5,-5.8 -1.9,-2.8 -5.3,-6.2 -7.6,-7.8 -2.3,-1.5 -4.5,-3.7 -4.8,-5 -0.3,-1.3 0,-2.8 1,-3.7 l 5.6,-10.5 c 0.5979,-0.8 1.26996,-2.82616 1.79895,-2.22602 1.35519,1.53745 1.14481,1.72602 1.70105,2.92602 0.2,1.3 1.1,6.4 2,11.3 0.8,4.9 4.70064,7.74332 5.50064,8.94332 0.8,1.3 -0.50064,4.55668 0.0994,4.55668 0.6,0 3.2291,-3.59289 6.6291,-7.09289 3.7,-3.7 5.90215,-9.09784 6.90215,-11.79784 1.2,-3 1.11207,-6.04396 0.71207,-8.54396 -0.4,-2.5 -0.41422,-2.82135 -2.84332,-6.36531 -2.4,-2.6 -4.4,-5.3 -4.5,-6 0,-0.6 0.6,-1.5 1.2,-1.8 0.7,-0.4 0.92845,-0.7319 3.47457,-1.73965 5.14397,-0.11983 10.28147,6.46723 12.50129,8.73877 1.1,-1 0.0241,-7.99912 -1.17586,-10.59912 -0.8,-1.8 -3.5,-5.5 -6,-8.2 -2.5,-2.7 -7,-6.5 -10,-8.4 -3,-1.9 -5.6,-3.5 -5.7,-3.6 -0.1,-0.1 1.4,-3.9 3.4,-8.6 2,-4.7 5,-10.5 6.8,-13 1.8,-2.5 4.4,-6.8 5.8,-9.5 1.3,-2.8 3,-7.7 3.7,-11 1,-4.8 1,-7.6 0,-14 -0.8,-4.8 -1,-11.4 -0.7,-16.5 0.4,-4.7 2.2,-14.8 4.2,-22.5 1.9,-7.7 9.99147,-22.53313 9.99147,-24.63313 -12.6789,-3.25692 -28.03393,-9.36729 -40.99151,-14.06687 -6.1,-2.2 -13.5,-4.7 -16.5,-5.4 -4.1,-1 -13.1,-1.3 -35,-1.3 -20.5,0.1 -31.2,0.5 -35,1.4 z"
       sodipodi:nodetypes="ccccssccccsssccccscccsssccccccccscccccsccsccscccscccscccccssssccsccscccsccsccccccssssscccccccccc"
       style="fill:#1832fc;fill-opacity:1;stroke:none;stroke-opacity:1" />
    <path
       id="Path 16-2"
       class="s2"
       d="m -355.5312,388.87394 -65.68689,60.58103 c -0.4,1.9 2.05349,3.88318 3.55349,5.68318 1.2,1.4 3.2,4.1 4.5,6 1.3,1.9 3,5.4 3.7,7.7 1.1,3.2 1.1,4.8 0.3,6.5 -0.6,1.3 -4.1,4.1 -7.9,6.3 -3.7,2.2 -9.5,6.3 -12.9,9.1 -3.3,2.7 -7.5,6.8 -9.2,9 -1.8,2.1 -4.1,6.6 -5.2,9.9 -1.1,3.3 -2.7,10.3 -3.6,15.5 -0.8,5.2 -2.2,16 -3.1,24 -1,8 -2.3,17.2 -3,20.5 -0.7,3.3 -3.2,12.5 -5.5,20.5 -2.3,8 -5.5,19.5 -7,25.5 -1.5,6 -3.5,15 -4.4,20 -0.9,5 -1.9,9.8 -2.1,10.8 -0.5,1.6 5,1.7 105.3,1.6 l 201.28932,-0.4 0.0244,-192.51872 c 0.90616,-4.20718 -84.55977,-14.79974 -84.41372,-15.18128 0.53333,-0.86667 0.36667,-1.03333 -0.5,-0.5 -8.52518,-3.1152 -17.40938,-5.03366 -26.89944,-4.93259 -9.37726,-0.13445 -16.69082,2.94132 -23.18166,7.29687 z"
       style="fill:#1832fc;fill-opacity:1;stroke:none;stroke-opacity:1" />
    <path
       id="Path 6-2"
       class="s2"
       d="m -481.85276,249.84361 c -3.57826,0.69995 -6.95204,1.79987 -7.46322,2.29983 -0.61341,0.59995 -1.73801,0.99992 -2.65813,0.99992 -0.92013,0 -3.06708,1.19991 -4.70285,2.79979 -2.65814,2.29982 -3.37379,3.99969 -4.70285,12.19906 -0.92013,5.19961 -2.24919,13.59896 -2.96484,18.49859 -0.61342,4.99962 -1.22684,13.29898 -1.22684,18.49859 0,5.1996 0.30671,10.49919 0.61342,11.79909 0.40894,1.19991 1.94248,2.99977 3.47602,3.9997 1.84025,1.09991 2.86261,2.5998 2.86261,4.19968 0,6.859 -21.97134,32.61607 -19.96335,40.14446 0.51118,1.89986 3.52463,3.55021 5.75661,5.22929 2.87343,1.70956 11.96519,8.2719 14.51332,8.32202 0.19643,-3.71392 4.11126,-2.76879 8.79038,-4.01536 5.33787,1.42193 42.06356,30.95549 46.17813,32.17216 23.18082,6.85454 62.46841,-91.8146 45.76599,-69.57558 1.7773,-30.37497 4.12361,-78.89909 -49.71867,-83.27156 -8.37286,-4.09824 -5.43596,-3.15805 -7.66769,-2.29983 -0.40894,-0.39997 -3.73923,-1.14457 -7.02446,-1.89565 -7.47147,-1.70815 -12.44992,-1.71552 -19.86358,-0.1042 z"
       style="fill:#1832fc;fill-opacity:1;stroke:none;stroke-width:1.01108;stroke-opacity:1"
       sodipodi:nodetypes="csscccsccsccccscccsc" />
    <path
       id="Path 0-0-8-2-3"
       class="s0"
       d="m -412.04824,276.65764 c -28.04167,-21.64219 -4.73275,5.45502 -3.62036,7.33691 8.54794,28.75363 10.79803,43.5749 10.31441,-1.57091 3.68102,-4.93128 5.52326,-13.39639 6.91375,-17.63063 z"
       sodipodi:nodetypes="ccccc"
       style="fill:#1832fc;fill-opacity:1;stroke:none;stroke-width:1.47669;stroke-opacity:1" />
    <path
       id="Path 4-8"
       class="s0"
       d="m -477.64292,304.53441 c -2.21197,1.70841 -3.06739,1.95287 -5.50627,7.69099 0,4.5164 0.61379,8.05628 1.35034,8.05628 0.73654,0 1.47309,-1.09859 1.84136,-2.4413 0.36827,-1.46478 3.19899,-3.34952 4.36276,-4.25265 1.77837,-1.38007 1.12483,-1.28727 0.42479,6.44982 3.44701,4.28451 2.37891,5.85856 3.55997,4.5164 1.80288,-2.68906 3.04958,-2.15582 4.75561,-5.20934 0.61378,-1.22065 1.62779,-2.48075 1.38227,-4.55585 -0.36827,-2.19717 0,-4.15021 1.10482,-5.00466 0.8593,-0.73239 2.94618,-1.83097 4.66479,-2.31923 2.82342,-0.97652 2.94618,-0.85446 2.08688,1.95303 -0.73655,2.31924 -0.61379,2.8075 0.98206,1.95304 0.98206,-0.48826 2.08688,-0.85445 2.45515,-0.85445 0.36827,0 0.61379,-1.09859 0.61379,-2.4413 0,-1.34271 -0.8593,-3.29575 -1.84136,-4.27227 -1.35034,-1.34271 -4.54204,-1.83097 -11.90749,-1.70891 -5.64685,0 -8.73362,1.83007 -10.32947,2.4404 z"
       style="fill:#1832fc;fill-opacity:1;stroke:none;stroke-width:1.22411;stroke-opacity:1"
       sodipodi:nodetypes="ccscsccccccccssscc" />
    <path
       id="Path 5-7"
       class="s0"
       d="m -466.5646,287.63815 c -9.66978,1.87684 -9.64557,1.94457 -18.3526,6.04396 -4.48502,5.53734 -13.08275,11.7299 -12.33078,11.79673 4.29979,0.38215 10.22538,-1.89333 14.29308,-3.33841 5.44796,-1.93543 5.02455,-3.72235 13.0903,-5.90228 15.36126,-1.22706 9.43661,2.19555 23.66238,1.48412 4.01528,-4.82775 9.36708,-6.32588 7.72638,-6.81334 -5.5204,-1.64011 -20.964,-3.12228 -28.08876,-3.27078 z"
       sodipodi:nodetypes="ccssccsc"
       style="fill:#1832fc;fill-opacity:1;stroke:none;stroke-opacity:1" />
    <path
       id="Path 8-3"
       class="s0"
       d="m -505.4646,367.13815 c -1.4,0.5 -2.4,1.4 -2.3,2 0.1,0.6 1.8,0.8 4,0.6 2,-0.3 5.2,-0.7 7,-1 1.7,-0.3 3,-1 2.7,-1.6 -0.3,-0.6 -2.4,-1 -4.7,-0.9 -2.4,0 -5.4,0.4 -6.7,0.9 z"
       style="fill:#1832fc;fill-opacity:1;stroke:none;stroke-opacity:1" />
    <path
       id="Path 15-4"
       class="s2"
       d="m -504.16762,391.15101 c -1.9,1.9 1.70302,3.08714 6.90302,8.18714 4.4,4.3 6.94953,10.44858 7.54953,14.14858 -0.77282,1.02676 11.57362,5.00212 11.15047,15.35142 -0.88476,4.49663 -0.64183,6.01554 1.17127,9.49111 0.66222,1.26944 1.59958,2.07612 4.17429,2.01683 13.11089,-0.30193 32.67278,-36.77157 7.71492,-43.57826 l -10.49016,-7.14953 c -0.6,-0.3 -3.41588,-0.34158 -3.41588,0.25842 0,0.5 -0.0544,4.26143 -1.15444,4.26143 -1.1,0 -3.73762,-4.4862 -6.43762,-5.0862 -2.6,-0.6 -6.44159,-1.13761 -8.34159,-1.53761 -2.7,-0.7 -7.32381,2.03667 -8.82381,3.63667 z"
       style="fill:#1832fc;fill-opacity:1;stroke:none;stroke-opacity:1" />
    <path
       id="Path 9-9"
       class="s1"
       d="m -349.69587,282.10688 c -2.3,1.2 -5.77251,4.21374 -7.37251,6.61374 -1.7,2.4 -3.38626,5.95877 -3.68626,7.65877 -0.6,2.7 0.59004,3.65876 4.39004,6.55876 15.53475,7.55142 28.01915,15.40859 6.7673,26.9673 -3.84835,2.11675 -7.01152,3.11462 -12.0673,1.2327 0,-1.7 -1,-3.2 -3.4,-4.8 -1.9,-1.2 -8.02542,-6.95732 -8.52542,-6.95732 -0.6,0 2.52542,6.25732 1.92542,7.95732 -0.0649,0.23362 -2.77273,16.22079 10.0149,23.15385 16.6172,18.55975 -29.40736,66.93857 -60.2149,91.23424 -2.22476,-0.90794 -5.29508,-0.29111 -5.59508,0.60889 -0.3,1.2 2.69508,6.10302 4.59508,7.70302 l 2.8,2.4 c 0.56081,-16.38101 61.17233,-3.094 54.15738,-38.16873 -0.0698,-1.76267 -1.58719,-7.71019 -0.53893,-6.4836 2.50248,2.9282 6.01876,4.91847 6.08155,8.35233 0.80831,5.65444 -0.37407,22.85828 1.25588,18.10928 5.22411,-15.22086 11.22892,26.17645 11.54412,40.09072 0,1.6 -0.9,4.5 -1.9,6.5 -1,2.1 -2.82079,2.6673 -3.82079,3.6673 l -6.88318,3.95349 c 3.38223,1.30479 5.57387,3.14911 7.30397,4.87921 15.35875,-15.7505 28.68706,-15.17918 47.14985,-8.44178 -2.32587,-7.65803 -6.17995,-11.8022 -8.94982,-18.55822 9.09059,-28.03003 64.97273,-25.59351 68.75313,-25.519 1.44329,0.0285 -7.60029,-3.40957 -21.15316,-7.481 -11,-3.2 -21.6,-6.7 -23.5,-7.7 -1.9,-0.9 -5.3,-3.2 -7.5,-4.9 -2.2,-1.8 -5,-4.9 -6.3,-6.9 -1.5,-2.6 -1.9,-4.2 -1.3,-5.5 0.6,-1.2 0.3,-2.4 -1,-4.2 -1.2,-1.5 -1.9291,-6.28297 -2.8291,-11.68297 -0.8,-4.9 -2.3709,-9.81703 -2.5709,-11.11703 -0.3,-1.2 -1.2,-3.48121 -2,-3.48121 -0.8,0 -1.06703,2.1085 -1.5,2.78121 -3.61416,5.61527 -3.52941,4.99576 -5.6,10.5 -1,0.9 -1.3,2.4 -1,3.7 0.3,1.3 2.5,3.5 4.8,5 2.3,1.6 5.7,5 7.6,7.8 1.8,2.7 3,5.3 2.5,5.8 -0.4,0.4 -1.9,-0.4 -3.3,-1.8 -1.4,-1.4 -3.2,-2.5 -4,-2.5 -0.8,0 -3.8,-2.3 -6.5,-5 -2.8,-2.8 -7.4,-6.4 -10.3,-8.1 -3.8,-2.1 -5.23762,-4.17032 -6.33762,-3.47032 -1,0.7 -2.66238,2.17032 -4.46238,1.27032 -1.4,-0.6 -3,-2.7 -3.7,-4.5 -4.22188,-8.68853 -5.2046,-9.17508 -9,-12.5 l -0.2,-3.4 c 2.65908,3.57168 6.53894,-2.68048 8.76426,3.21098 2.19785,-3.23534 8.73574,8.98902 10.43574,9.48902 3,0.9 4.07629,1.57629 4.07629,-0.22371 4.61761,-15.29935 -4.32807,-25.78713 -9.57528,-35.80996 -0.3,-3.2 6.04852,-6.42474 8.74852,-11.22474 1.8,-3.3 7.21984,-7.89603 8.41984,-10.89603 1.1,-3 3.90794,-7.53365 4.70794,-11.33365 0.9,-3.7 -4.07731,-10.41191 -4.07731,-12.81191 0,-2.3 -0.5,-5.8 -1.1,-7.7 -0.7,-1.9 -2.5,-5.4 -4.1,-7.8 -1.5,-2.3 -4.3,-5.1 -6.1,-6.2 -1.7,-1.1 -4.8,-2 -6.7,-2 -1.9,0 -5.83127,0.66873 -8.13127,1.96873 z"
       sodipodi:nodetypes="ccccsccscccccccscscccccccsccccccccsscsccsssscccccccccccccscccsc"
       style="fill:#1832fc;fill-opacity:1;stroke:none;stroke-opacity:1" />
    <path
       id="Path 16-4-3"
       class="s2"
       d="m -409.53721,475.40902 c -0.6,1.3 -4.1,4.1 -7.9,6.3 -3.7,2.2 -9.5,6.3 -12.9,9.1 -3.3,2.7 -7.5,6.8 -9.2,9 -1.8,2.1 -4.1,6.6 -5.2,9.9 -1.1,3.3 -2.7,10.3 -3.6,15.5 -0.8,5.2 -2.2,16 -3.1,24 -1,8 -2.3,17.2 -3,20.5 -0.7,3.3 -3.2,12.5 -5.5,20.5 -2.3,8 -5.5,19.5 -7,25.5 -1.5,6 -3.5,15 -4.4,20 -0.9,5 -1.9,9.8 -2.1,10.8 -0.5,1.6 5,1.7 105.3,1.6 l 201.28933,-0.4 0.0244,-192.51872 c 0.90616,-4.20718 -84.55978,-14.79974 -84.41373,-15.18128 0.53333,-0.86667 0.36667,-1.03333 -0.5,-0.5 -8.52518,-3.1152 -17.40938,-5.03366 -26.89944,-4.93259 -9.37726,-0.13445 -16.69082,2.94132 -23.18166,7.29687 -33.51939,30.27389 -68.69958,47.26134 -107.7189,33.53572 z"
       style="fill:#1832fc;fill-opacity:1;stroke:none;stroke-opacity:1"
       sodipodi:nodetypes="ccccsccssssccccccccc" />
    <path
       id="Path 0-0-5"
       class="s0"
       d="m -499.63179,255.24983 c 0.8,4.9 -2.88977,6.19074 -2.08977,7.39074 0.8,1.3 -0.50064,4.55668 0.0994,4.55668 0.6,0 3.2291,-3.59289 6.6291,-7.09289 3.7,-3.7 5.90215,-9.09784 6.90215,-11.79784 z"
       sodipodi:nodetypes="ccsccc"
       style="fill:#1832fc;fill-opacity:1;stroke:none;stroke-opacity:1" />
    <path
       id="Path 0-0-8-5"
       class="s0"
       d="m -497.40453,256.94728 c 0.8,4.9 -2.88977,6.19074 -2.08977,7.39074 0.8,1.3 -0.50064,4.55668 0.0994,4.55668 0.6,0 3.2291,-3.59289 6.6291,-7.09289 3.7,-3.7 5.90215,-9.09784 6.90215,-11.79784 z"
       sodipodi:nodetypes="ccsccc"
       style="fill:#1832fc;fill-opacity:1;stroke:none;stroke-opacity:1" />
    <path
       id="Path 0-0-8-2-0-4"
       class="s0"
       d="m -449.89013,244.87827 c 1.11239,7.68438 13.20821,21.15337 14.3206,23.03526 7.2243,2.71629 0.41659,22.76807 7.75525,11.03713 0.44246,-0.70728 4.06612,-8.56208 2.38665,-14.67816 3.68102,-4.93128 5.52326,-13.39639 6.91375,-17.63063 z"
       sodipodi:nodetypes="ccsccc"
       style="fill:#1832fc;fill-opacity:1;stroke:none;stroke-width:1.47669;stroke-opacity:1" />
    <path
       id="Path 0-2-6"
       class="s0"
       d="m -397.92716,201.61798 c -20.42717,2.45343 -22.05432,3.29859 -44.4,11.3 0.2,-0.5 -1.5,-0.3 -3.9,0.3 -2.3,0.6 -7.4,2.6 -11.2,4.6 -3.8,1.9 -9.7,5.5 -13,7.9 -3.3,2.4 -8.1,6.2 -10.6,8.6 -2.5,2.4 -7.4,7.6 -10.8,11.6 -3.3,3.9 -8.81712,13.90438 -8.71712,14.40438 0.2,0.6 7.29339,-3.58887 10.43505,-5.53263 2.7,-2.3 7.69758,-4.26831 9.59758,-4.86831 1.9,-0.5 5.42414,0.56379 9.02414,0.56379 3.6,0 9.1681,0.9 13.2681,1.9 4.1,1 11.37586,4.76379 14.97586,6.56379 3.6,1.8 8.31102,4.58563 11.21102,6.38563 2.8,1.9 11.92958,9.57144 13.12958,9.47144 l 46.87579,52.51191 c 0.6,-1.7 -1.3056,-6.37154 -0.7056,-6.37154 0.6,0 5.4056,4.17154 7.3056,5.37154 2.4,1.6 3.4,3.1 3.4,4.8 0.1,1.4 -18.1853,9.68705 1.3,3.8 45.84603,-13.85137 10.48541,-28.85586 3.6,-45.7 1.7,-2.9 4.3,-5.2 7.2,-6.7 2.5,-1.3 6.1,-2.4 8,-2.4 1.9,0 5,0.9 6.7,2 1.8,1.1 4.6,3.9 6.1,6.2 1.6,2.4 3.4,5.9 4.1,7.8 0.6,1.9 1.1,5.4 1.1,7.7 0,2.4 1.71588,5.3673 0.81588,9.0673 -0.8,3.8 -2.4,9.3 -3.5,12.3 -1.2,3 -6.01588,10.1327 -7.81588,13.4327 -17.1904,13.22821 -2.78052,32.50182 1.5,46.5 0.52636,1.72132 -1.16255,-2.24022 -4.16255,-3.14022 -2.98891,-8.87826 -5.96876,-7.50333 -10.5773,-10.68008 l -7.76015,2.1203 c 0.29708,7.20868 2.12849,6.99897 12.17524,21.97032 1.31615,-1.0131 5.04519,-2.95114 11.52476,0.62968 2.9,1.7 7.5,5.3 10.3,8.1 2.7,2.7 5.7,5 6.5,5 0.8,0 2.6,1.1 4,2.5 1.4,1.4 2.9,2.2 3.3,1.8 0.5,-0.5 -0.7,-3.1 -2.5,-5.8 -1.9,-2.8 -5.3,-6.2 -7.6,-7.8 -2.3,-1.5 -4.5,-3.7 -4.8,-5 -0.3,-1.3 0,-2.8 1,-3.7 l 5.6,-10.5 c 0.5979,-0.8 1.26996,-2.82616 1.79895,-2.22602 1.35519,1.53745 1.14481,1.72602 1.70105,2.92602 0.2,1.3 1.1,6.4 2,11.3 0.8,4.9 4.70064,7.74332 5.50064,8.94332 0.8,1.3 -0.50064,4.55668 0.0994,4.55668 0.6,0 3.2291,-3.59289 6.6291,-7.09289 3.7,-3.7 5.90215,-9.09784 6.90215,-11.79784 1.2,-3 1.11207,-6.04396 0.71207,-8.54396 -0.4,-2.5 -0.41422,-2.82135 -2.84332,-6.36531 -2.4,-2.6 -4.4,-5.3 -4.5,-6 0,-0.6 0.6,-1.5 1.2,-1.8 0.7,-0.4 0.92845,-0.7319 3.47457,-1.73965 5.14397,-0.11983 10.28147,6.46723 12.50129,8.73877 1.1,-1 0.0241,-7.99912 -1.17586,-10.59912 -0.8,-1.8 -3.5,-5.5 -6,-8.2 -2.5,-2.7 -7,-6.5 -10,-8.4 -3,-1.9 -5.6,-3.5 -5.7,-3.6 -0.1,-0.1 1.4,-3.9 3.4,-8.6 2,-4.7 5,-10.5 6.8,-13 1.8,-2.5 4.4,-6.8 5.8,-9.5 1.3,-2.8 3,-7.7 3.7,-11 1,-4.8 1,-7.6 0,-14 -0.8,-4.8 -1,-11.4 -0.7,-16.5 0.4,-4.7 2.2,-14.8 4.2,-22.5 1.9,-7.7 9.99147,-22.53313 9.99147,-24.63313 -12.6789,-3.25692 -28.03393,-9.36729 -40.99151,-14.06687 -6.1,-2.2 -13.5,-4.7 -16.5,-5.4 -4.1,-1 -13.1,-1.3 -35,-1.3 -20.5,0.1 -31.2,0.5 -35,1.4 z"
       sodipodi:nodetypes="ccccssccccssscccsccsccscccscccscccccssssccsccscccsccsccccccssssscccccccccc"
       style="fill:#1832fc;fill-opacity:1;stroke:none;stroke-opacity:1" />
  </g>
</g>
<g
   inkscape:groupmode="layer"
   id="layer1"
   inkscape:label="parent">
  <path
     id="Path 0"
     class="s0"
     d="m 214,114.5 c -20.42717,2.45343 -22.05432,3.29859 -44.4,11.3 0.2,-0.5 -1.5,-0.3 -3.9,0.3 -2.3,0.6 -7.4,2.6 -11.2,4.6 -3.8,1.9 -9.7,5.5 -13,7.9 -3.3,2.4 -8.1,6.2 -10.6,8.6 -2.5,2.4 -7.4,7.6 -10.8,11.6 -3.3,3.9 -8.81712,13.90438 -8.71712,14.40438 0.2,0.6 7.29339,-3.58887 10.43505,-5.53263 2.7,-2.3 7.69758,-4.26831 9.59758,-4.86831 1.9,-0.5 5.42414,0.56379 9.02414,0.56379 3.6,0 9.1681,0.9 13.2681,1.9 4.1,1 11.37586,4.76379 14.97586,6.56379 3.6,1.8 8.31102,4.58563 11.21102,6.38563 2.8,1.9 11.92958,9.57144 13.12958,9.47144 C 216.18825,206.36838 233.29031,269.71426 163.2,312 c -0.4,0 -1.3,-1.1 -2,-2.5 -0.8,-1.66667 -2.03333,-2.5 -3.7,-2.5 -1.66667,0 -2.66667,-0.66667 -3,-2 -0.3,-1.1 -1.7,-2.9 -3.3,-3.9 -1.5,-1 -6.8,-3.5 -11.7,-5.5 -5.9,-2.3 -10.2,-4.8 -12.5,-7.1 -1.9,-1.9 -3.81682,-1.32571 -4.81682,-1.32571 -0.9,0 -3.48318,-1.47429 -5.18318,-0.67429 -1.7,0.8 -4.8,3.2 -7,5.3 -2.7,2.5 -4.2,4.8 -4.6,7.2 -0.3,1.9 -0.1,4.6 0.3,5.9 l 3.94064,0.3673 C 125.90642,298.38531 137.3496,316.15032 149.2,317 c 1.3,-0.1 3,0.7 3.9,1.7 1,1.1 1.9,4.5 2.3,9.1 1.03341,6.35011 -1.94673,9.87903 -6.7,14 -3.48286,3.74135 -17.32741,5.83501 -14.41692,9.75096 1.38765,1.86702 2.07389,5.6282 9.71692,10.84904 3.1,0.5 22.94576,-4.24022 32.14576,-6.04022 60.3592,22.34569 85.04232,-56.72824 78.2976,-88.39484 -0.8,-3.7 -12.54438,-9.07251 -11.94438,-15.67251 C 242.89898,246.79243 239.4,242 239.9,240.2 c 0.6,-1.7 -1.3056,-6.37154 -0.7056,-6.37154 0.6,0 5.4056,4.17154 7.3056,5.37154 2.4,1.6 3.4,3.1 3.4,4.8 0.1,1.4 -18.1853,9.68705 1.3,3.8 45.84603,-13.85137 10.48541,-28.85586 3.6,-45.7 1.7,-2.9 4.3,-5.2 7.2,-6.7 2.5,-1.3 6.1,-2.4 8,-2.4 1.9,0 5,0.9 6.7,2 1.8,1.1 4.6,3.9 6.1,6.2 1.6,2.4 3.4,5.9 4.1,7.8 0.6,1.9 1.1,5.4 1.1,7.7 0,2.4 1.71588,5.3673 0.81588,9.0673 -0.8,3.8 -2.4,9.3 -3.5,12.3 -1.2,3 -6.01588,10.1327 -7.81588,13.4327 -17.1904,13.22821 -2.78052,32.50182 1.5,46.5 0.52636,1.72132 -1.16255,-2.24022 -4.16255,-3.14022 -2.98891,-8.87826 -5.96876,-7.50333 -10.5773,-10.68008 L 256.5,286.3 c 0.29708,7.20868 2.12849,6.99897 12.17524,21.97032 1.31615,-1.0131 5.04519,-2.95114 11.52476,0.62968 2.9,1.7 7.5,5.3 10.3,8.1 2.7,2.7 5.7,5 6.5,5 0.8,0 2.6,1.1 4,2.5 1.4,1.4 2.9,2.2 3.3,1.8 0.5,-0.5 -0.7,-3.1 -2.5,-5.8 -1.9,-2.8 -5.3,-6.2 -7.6,-7.8 -2.3,-1.5 -4.5,-3.7 -4.8,-5 -0.3,-1.3 0,-2.8 1,-3.7 l 5.6,-10.5 c 0.5979,-0.8 1.26996,-2.82616 1.79895,-2.22602 1.35519,1.53745 1.14481,1.72602 1.70105,2.92602 0.2,1.3 1.1,6.4 2,11.3 0.8,4.9 4.70064,7.74332 5.50064,8.94332 0.8,1.3 -0.50064,4.55668 0.0994,4.55668 0.6,0 3.2291,-3.59289 6.6291,-7.09289 3.7,-3.7 5.90215,-9.09784 6.90215,-11.79784 1.2,-3 1.11207,-6.04396 0.71207,-8.54396 -0.4,-2.5 -0.41422,-2.82135 -2.84332,-6.36531 -2.4,-2.6 -4.4,-5.3 -4.5,-6 0,-0.6 0.6,-1.5 1.2,-1.8 0.7,-0.4 0.92845,-0.7319 3.47457,-1.73965 5.14397,-0.11983 10.28147,6.46723 12.50129,8.73877 1.1,-1 0.0241,-7.99912 -1.17586,-10.59912 -0.8,-1.8 -3.5,-5.5 -6,-8.2 -2.5,-2.7 -7,-6.5 -10,-8.4 -3,-1.9 -5.6,-3.5 -5.7,-3.6 -0.1,-0.1 1.4,-3.9 3.4,-8.6 2,-4.7 5,-10.5 6.8,-13 1.8,-2.5 4.4,-6.8 5.8,-9.5 1.3,-2.8 3,-7.7 3.7,-11 1,-4.8 1,-7.6 0,-14 -0.8,-4.8 -1,-11.4 -0.7,-16.5 0.4,-4.7 2.2,-14.8 4.2,-22.5 1.9,-7.7 9.99147,-22.53313 9.99147,-24.63313 C 328.81261,130.60995 313.45758,124.49958 300.5,119.8 c -6.1,-2.2 -13.5,-4.7 -16.5,-5.4 -4.1,-1 -13.1,-1.3 -35,-1.3 -20.5,0.1 -31.2,0.5 -35,1.4 z"
     sodipodi:nodetypes="ccccssccccsssccccscccsssccccccccscccccsccsccscccscccscccccssssccsccscccsccsccccccssssscccccccccc"
     style="fill:#010a4d;fill-opacity:1;stroke:none;stroke-opacity:0.596078" />
  <path
     id="Path 16"
     class="s2"
     d="m 256.0334,301.73579 -65.68689,60.58103 c -0.4,1.9 2.05349,3.88318 3.55349,5.68318 1.2,1.4 3.2,4.1 4.5,6 1.3,1.9 3,5.4 3.7,7.7 1.1,3.2 1.1,4.8 0.3,6.5 -0.6,1.3 -4.1,4.1 -7.9,6.3 -3.7,2.2 -9.5,6.3 -12.9,9.1 -3.3,2.7 -7.5,6.8 -9.2,9 -1.8,2.1 -4.1,6.6 -5.2,9.9 -1.1,3.3 -2.7,10.3 -3.6,15.5 -0.8,5.2 -2.2,16 -3.1,24 -1,8 -2.3,17.2 -3,20.5 -0.7,3.3 -3.2,12.5 -5.5,20.5 -2.3,8 -5.5,19.5 -7,25.5 -1.5,6 -3.5,15 -4.4,20 -0.9,5 -1.9,9.8 -2.1,10.8 -0.5,1.6 5,1.7 105.3,1.6 l 201.28932,-0.4 0.0244,-192.51872 C 446.01988,363.7741 360.55395,353.18154 360.7,352.8 c 0.53333,-0.86667 0.36667,-1.03333 -0.5,-0.5 -8.52518,-3.1152 -17.40938,-5.03366 -26.89944,-4.93259 -9.37726,-0.13445 -16.69082,2.94132 -23.18166,7.29687 z"
     style="fill:url(#linearGradient37);fill-opacity:1" />
  <path
     id="Path 6"
     class="s2"
     d="m 129.71184,162.70546 c -3.57826,0.69995 -6.95204,1.79987 -7.46322,2.29983 -0.61341,0.59995 -1.73801,0.99992 -2.65813,0.99992 -0.92013,0 -3.06708,1.19991 -4.70285,2.79979 -2.65814,2.29982 -3.37379,3.99969 -4.70285,12.19906 -0.92013,5.19961 -2.24919,13.59896 -2.96484,18.49859 -0.61342,4.99962 -1.22684,13.29898 -1.22684,18.49859 0,5.1996 0.30671,10.49919 0.61342,11.79909 0.40894,1.19991 1.94248,2.99977 3.47602,3.9997 1.84025,1.09991 2.86261,2.5998 2.86261,4.19968 0,6.859 -21.971341,32.61607 -19.963348,40.14446 0.51118,1.89986 3.524624,3.55021 5.756613,5.22929 2.873425,1.70956 11.965185,8.2719 14.513315,8.32202 0.19643,-3.71392 4.11126,-2.76879 8.79038,-4.01536 5.33787,1.42193 42.06356,30.95549 46.17813,32.17216 23.18082,6.85454 62.46841,-91.8146 45.76599,-69.57558 1.7773,-30.37497 4.12361,-78.89909 -49.71867,-83.27156 -8.37286,-4.09824 -5.43596,-3.15805 -7.66769,-2.29983 -0.40894,-0.39997 -3.73923,-1.14457 -7.02446,-1.89565 -7.47147,-1.70815 -12.44992,-1.71552 -19.86358,-0.1042 z"
     style="fill:url(#radialGradient36);fill-opacity:1;stroke:none;stroke-width:1.01108;stroke-opacity:0.596078"
     sodipodi:nodetypes="csscccsccsccccscccsc" />
  <path
     id="Path 0-0-8-2"
     class="s0"
     d="m 199.51636,189.51949 c -28.04167,-21.64219 -4.73275,5.45502 -3.62036,7.33691 8.54794,28.75363 10.79803,43.5749 10.31441,-1.57091 3.68102,-4.93128 5.52326,-13.39639 6.91375,-17.63063 z"
     sodipodi:nodetypes="ccccc"
     style="fill:#010a4d;fill-opacity:1;stroke:none;stroke-width:1.47669;stroke-opacity:0.596078" />
  <path
     id="Path 4"
     class="s0"
     d="m 133.92168,217.39626 c -2.21197,1.70841 -3.06739,1.95287 -5.50627,7.69099 0,4.5164 0.61379,8.05628 1.35034,8.05628 0.73654,0 1.47309,-1.09859 1.84136,-2.4413 0.36827,-1.46478 3.19899,-3.34952 4.36276,-4.25265 1.77837,-1.38007 1.12483,-1.28727 0.42479,6.44982 3.44701,4.28451 2.37891,5.85856 3.55997,4.5164 1.80288,-2.68906 3.04958,-2.15582 4.75561,-5.20934 0.61378,-1.22065 1.62779,-2.48075 1.38227,-4.55585 -0.36827,-2.19717 0,-4.15021 1.10482,-5.00466 0.8593,-0.73239 2.94618,-1.83097 4.66479,-2.31923 2.82342,-0.97652 2.94618,-0.85446 2.08688,1.95303 -0.73655,2.31924 -0.61379,2.8075 0.98206,1.95304 0.98206,-0.48826 2.08688,-0.85445 2.45515,-0.85445 0.36827,0 0.61379,-1.09859 0.61379,-2.4413 0,-1.34271 -0.8593,-3.29575 -1.84136,-4.27227 -1.35034,-1.34271 -4.54204,-1.83097 -11.90749,-1.70891 -5.64685,0 -8.73362,1.83007 -10.32947,2.4404 z"
     style="stroke-width:1.22411"
     sodipodi:nodetypes="ccscsccccccccssscc" />
  <path
     id="Path 5"
     class="s0"
     d="m 145,200.5 c -9.66978,1.87684 -9.64557,1.94457 -18.3526,6.04396 -4.48502,5.53734 -13.08275,11.7299 -12.33078,11.79673 4.29979,0.38215 10.22538,-1.89333 14.29308,-3.33841 5.44796,-1.93543 5.02455,-3.72235 13.0903,-5.90228 15.36126,-1.22706 9.43661,2.19555 23.66238,1.48412 4.01528,-4.82775 9.36708,-6.32588 7.72638,-6.81334 C 167.56836,202.13067 152.12476,200.6485 145,200.5 Z"
     sodipodi:nodetypes="ccssccsc" />
  <path
     id="Path 8"
     class="s0"
     d="m 106.1,280 c -1.4,0.5 -2.4,1.4 -2.3,2 0.1,0.6 1.8,0.8 4,0.6 2,-0.3 5.2,-0.7 7,-1 1.7,-0.3 3,-1 2.7,-1.6 -0.3,-0.6 -2.4,-1 -4.7,-0.9 -2.4,0 -5.4,0.4 -6.7,0.9 z" />
  <path
     id="Path 15"
     class="s2"
     d="m 107.39698,304.01286 c -1.9,1.9 1.70302,3.08714 6.90302,8.18714 4.4,4.3 6.94953,10.44858 7.54953,14.14858 -0.77282,1.02676 11.57362,5.00212 11.15047,15.35142 -0.88476,4.49663 -0.64183,6.01554 1.17127,9.49111 0.66222,1.26944 1.59958,2.07612 4.17429,2.01683 13.11089,-0.30193 32.67278,-36.77157 7.71492,-43.57826 l -10.49016,-7.14953 c -0.6,-0.3 -3.41588,-0.34158 -3.41588,0.25842 0,0.5 -0.0544,4.26143 -1.15444,4.26143 -1.1,0 -3.73762,-4.4862 -6.43762,-5.0862 -2.6,-0.6 -6.44159,-1.13761 -8.34159,-1.53761 -2.7,-0.7 -7.32381,2.03667 -8.82381,3.63667 z"
     style="fill:url(#linearGradient34);fill-opacity:1" />
  <path
     id="Path 9"
     class="s1"
     d="m 261.86873,194.96873 c -2.3,1.2 -5.77251,4.21374 -7.37251,6.61374 -1.7,2.4 -3.38626,5.95877 -3.68626,7.65877 -0.6,2.7 0.59004,3.65876 4.39004,6.55876 15.53475,7.55142 28.01915,15.40859 6.7673,26.9673 -3.84835,2.11675 -7.01152,3.11462 -12.0673,1.2327 0,-1.7 -1,-3.2 -3.4,-4.8 -1.9,-1.2 -8.02542,-6.95732 -8.52542,-6.95732 -0.6,0 2.52542,6.25732 1.92542,7.95732 -0.0649,0.23362 -2.77273,16.22079 10.0149,23.15385 16.6172,18.55975 -29.40736,66.93857 -60.2149,91.23424 -2.22476,-0.90794 -5.29508,-0.29111 -5.59508,0.60889 -0.3,1.2 2.69508,6.10302 4.59508,7.70302 l 2.8,2.4 c 0.56081,-16.38101 61.17233,-3.094 54.15738,-38.16873 -0.0698,-1.76267 -1.58719,-7.71019 -0.53893,-6.4836 2.50248,2.9282 6.01876,4.91847 6.08155,8.35233 0.80831,5.65444 -0.37407,22.85828 1.25588,18.10928 C 257.67999,331.88842 263.6848,373.28573 264,387.2 c 0,1.6 -0.9,4.5 -1.9,6.5 -1,2.1 -2.82079,2.6673 -3.82079,3.6673 l -6.88318,3.95349 c 3.38223,1.30479 5.57387,3.14911 7.30397,4.87921 15.35875,-15.7505 28.68706,-15.17918 47.14985,-8.44178 -2.32587,-7.65803 -6.17995,-11.8022 -8.94982,-18.55822 9.09059,-28.03003 64.97273,-25.59351 68.75313,-25.519 1.44329,0.0285 -7.60029,-3.40957 -21.15316,-7.481 -11,-3.2 -21.6,-6.7 -23.5,-7.7 -1.9,-0.9 -5.3,-3.2 -7.5,-4.9 -2.2,-1.8 -5,-4.9 -6.3,-6.9 -1.5,-2.6 -1.9,-4.2 -1.3,-5.5 0.6,-1.2 0.3,-2.4 -1,-4.2 -1.2,-1.5 -1.9291,-6.28297 -2.8291,-11.68297 -0.8,-4.9 -2.3709,-9.81703 -2.5709,-11.11703 -0.3,-1.2 -1.2,-3.48121 -2,-3.48121 -0.8,0 -1.06703,2.1085 -1.5,2.78121 -3.61416,5.61527 -3.52941,4.99576 -5.6,10.5 -1,0.9 -1.3,2.4 -1,3.7 0.3,1.3 2.5,3.5 4.8,5 2.3,1.6 5.7,5 7.6,7.8 1.8,2.7 3,5.3 2.5,5.8 -0.4,0.4 -1.9,-0.4 -3.3,-1.8 -1.4,-1.4 -3.2,-2.5 -4,-2.5 -0.8,0 -3.8,-2.3 -6.5,-5 -2.8,-2.8 -7.4,-6.4 -10.3,-8.1 -3.8,-2.1 -5.23762,-4.17032 -6.33762,-3.47032 -1,0.7 -2.66238,2.17032 -4.46238,1.27032 -1.4,-0.6 -3,-2.7 -3.7,-4.5 -4.22188,-8.68853 -5.2046,-9.17508 -9,-12.5 l -0.2,-3.4 c 2.65908,3.57168 6.53894,-2.68048 8.76426,3.21098 C 267.46211,286.27564 274,298.5 275.7,299 c 3,0.9 4.07629,1.57629 4.07629,-0.22371 4.61761,-15.29935 -4.32807,-25.78713 -9.57528,-35.80996 -0.3,-3.2 6.04852,-6.42474 8.74852,-11.22474 1.8,-3.3 7.21984,-7.89603 8.41984,-10.89603 1.1,-3 3.90794,-7.53365 4.70794,-11.33365 C 292.97731,225.81191 288,219.1 288,216.7 c 0,-2.3 -0.5,-5.8 -1.1,-7.7 -0.7,-1.9 -2.5,-5.4 -4.1,-7.8 -1.5,-2.3 -4.3,-5.1 -6.1,-6.2 -1.7,-1.1 -4.8,-2 -6.7,-2 -1.9,0 -5.83127,0.66873 -8.13127,1.96873 z"
     sodipodi:nodetypes="ccccsccscccccccscscccccccsccccccccsscsccsssscccccccccccccscccsc"
     style="fill:#d0ddf1;fill-opacity:1" />
  <path
     id="Path 16-4"
     class="s2"
     d="m 202.02739,388.27087 c -0.6,1.3 -4.1,4.1 -7.9,6.3 -3.7,2.2 -9.5,6.3 -12.9,9.1 -3.3,2.7 -7.5,6.8 -9.2,9 -1.8,2.1 -4.1,6.6 -5.2,9.9 -1.1,3.3 -2.7,10.3 -3.6,15.5 -0.8,5.2 -2.2,16 -3.1,24 -1,8 -2.3,17.2 -3,20.5 -0.7,3.3 -3.2,12.5 -5.5,20.5 -2.3,8 -5.5,19.5 -7,25.5 -1.5,6 -3.5,15 -4.4,20 -0.9,5 -1.9,9.8 -2.1,10.8 -0.5,1.6 5,1.7 105.3,1.6 l 201.28933,-0.4 0.0244,-192.51872 c 0.90616,-4.20718 -84.55978,-14.79974 -84.41373,-15.18128 0.53333,-0.86667 0.36667,-1.03333 -0.5,-0.5 -8.52518,-3.1152 -17.40938,-5.03366 -26.89944,-4.93259 -9.37726,-0.13445 -16.69082,2.94132 -23.18166,7.29687 -33.51939,30.27389 -68.69958,47.26134 -107.7189,33.53572 z"
     style="fill:url(#linearGradient39);fill-opacity:1;stroke:none;stroke-opacity:0.596078"
     sodipodi:nodetypes="ccccsccssssccccccccc" />
  <path
     id="Path 0-0"
     class="s0"
     d="m 111.24277,172.33816 c 0.8,4.9 -2.88977,6.19074 -2.08977,7.39074 0.8,1.3 -0.50064,4.55668 0.0994,4.55668 0.6,0 3.2291,-3.59289 6.6291,-7.09289 3.7,-3.7 5.90215,-9.09784 6.90215,-11.79784 z"
     sodipodi:nodetypes="ccsccc"
     style="display:inline;fill:#010a4d;fill-opacity:1;stroke:none;stroke-opacity:0.596078" />
  <path
     id="Path 0-0-8"
     class="s0"
     d="m 120.02538,165.84141 c 0.8,4.9 -2.88977,6.19074 -2.08977,7.39074 0.8,1.3 -0.50064,4.55668 0.0994,4.55668 0.6,0 3.2291,-3.59289 6.6291,-7.09289 3.7,-3.7 5.90215,-9.09784 6.90215,-11.79784 z"
     sodipodi:nodetypes="ccsccc"
     style="display:inline;fill:#010a4d;fill-opacity:1;stroke:none;stroke-opacity:0.596078" />
  <path
     id="Path 0-0-8-2-0"
     class="s0"
     d="m 161.67447,157.74012 c 1.11239,7.68438 13.20821,21.15337 14.3206,23.03526 7.2243,2.71629 0.41659,22.76807 7.75525,11.03713 0.44246,-0.70728 4.06612,-8.56208 2.38665,-14.67816 3.68102,-4.93128 5.52326,-13.39639 6.91375,-17.63063 z"
     sodipodi:nodetypes="ccsccc"
     style="display:inline;fill:#010a4d;fill-opacity:1;stroke:none;stroke-width:1.47669;stroke-opacity:0.596078" />
  <path
     id="Path 0-2"
     class="s0"
     d="m 213.63744,114.47983 c -20.42717,2.45343 -22.05432,3.29859 -44.4,11.3 0.2,-0.5 -1.5,-0.3 -3.9,0.3 -2.3,0.6 -7.4,2.6 -11.2,4.6 -3.8,1.9 -9.7,5.5 -13,7.9 -3.3,2.4 -8.1,6.2 -10.6,8.6 -2.5,2.4 -7.4,7.6 -10.8,11.6 -3.3,3.9 -8.81712,13.90438 -8.71712,14.40438 0.2,0.6 7.29339,-3.58887 10.43505,-5.53263 2.7,-2.3 7.69758,-4.26831 9.59758,-4.86831 1.9,-0.5 5.42414,0.56379 9.02414,0.56379 3.6,0 9.1681,0.9 13.2681,1.9 4.1,1 11.37586,4.76379 14.97586,6.56379 3.6,1.8 8.31102,4.58563 11.21102,6.38563 2.8,1.9 11.92958,9.57144 13.12958,9.47144 l 46.87579,52.51191 c 0.6,-1.7 -1.3056,-6.37154 -0.7056,-6.37154 0.6,0 5.4056,4.17154 7.3056,5.37154 2.4,1.6 3.4,3.1 3.4,4.8 0.1,1.4 -18.1853,9.68705 1.3,3.8 45.84603,-13.85137 10.48541,-28.85586 3.6,-45.7 1.7,-2.9 4.3,-5.2 7.2,-6.7 2.5,-1.3 6.1,-2.4 8,-2.4 1.9,0 5,0.9 6.7,2 1.8,1.1 4.6,3.9 6.1,6.2 1.6,2.4 3.4,5.9 4.1,7.8 0.6,1.9 1.1,5.4 1.1,7.7 0,2.4 1.71588,5.3673 0.81588,9.0673 -0.8,3.8 -2.4,9.3 -3.5,12.3 -1.2,3 -6.01588,10.1327 -7.81588,13.4327 -17.1904,13.22821 -2.78052,32.50182 1.5,46.5 0.52636,1.72132 -1.16255,-2.24022 -4.16255,-3.14022 -2.98891,-8.87826 -5.96876,-7.50333 -10.5773,-10.68008 l -7.76015,2.1203 c 0.29708,7.20868 2.12849,6.99897 12.17524,21.97032 1.31615,-1.0131 5.04519,-2.95114 11.52476,0.62968 2.9,1.7 7.5,5.3 10.3,8.1 2.7,2.7 5.7,5 6.5,5 0.8,0 2.6,1.1 4,2.5 1.4,1.4 2.9,2.2 3.3,1.8 0.5,-0.5 -0.7,-3.1 -2.5,-5.8 -1.9,-2.8 -5.3,-6.2 -7.6,-7.8 -2.3,-1.5 -4.5,-3.7 -4.8,-5 -0.3,-1.3 0,-2.8 1,-3.7 l 5.6,-10.5 c 0.5979,-0.8 1.26996,-2.82616 1.79895,-2.22602 1.35519,1.53745 1.14481,1.72602 1.70105,2.92602 0.2,1.3 1.1,6.4 2,11.3 0.8,4.9 4.70064,7.74332 5.50064,8.94332 0.8,1.3 -0.50064,4.55668 0.0994,4.55668 0.6,0 3.2291,-3.59289 6.6291,-7.09289 3.7,-3.7 5.90215,-9.09784 6.90215,-11.79784 1.2,-3 1.11207,-6.04396 0.71207,-8.54396 -0.4,-2.5 -0.41422,-2.82135 -2.84332,-6.36531 -2.4,-2.6 -4.4,-5.3 -4.5,-6 0,-0.6 0.6,-1.5 1.2,-1.8 0.7,-0.4 0.92845,-0.7319 3.47457,-1.73965 5.14397,-0.11983 10.28147,6.46723 12.50129,8.73877 1.1,-1 0.0241,-7.99912 -1.17586,-10.59912 -0.8,-1.8 -3.5,-5.5 -6,-8.2 -2.5,-2.7 -7,-6.5 -10,-8.4 -3,-1.9 -5.6,-3.5 -5.7,-3.6 -0.1,-0.1 1.4,-3.9 3.4,-8.6 2,-4.7 5,-10.5 6.8,-13 1.8,-2.5 4.4,-6.8 5.8,-9.5 1.3,-2.8 3,-7.7 3.7,-11 1,-4.8 1,-7.6 0,-14 -0.8,-4.8 -1,-11.4 -0.7,-16.5 0.4,-4.7 2.2,-14.8 4.2,-22.5 1.9,-7.7 9.99147,-22.53313 9.99147,-24.63313 -12.6789,-3.25692 -28.03393,-9.36729 -40.99151,-14.06687 -6.1,-2.2 -13.5,-4.7 -16.5,-5.4 -4.1,-1 -13.1,-1.3 -35,-1.3 -20.5,0.1 -31.2,0.5 -35,1.4 z"
     sodipodi:nodetypes="ccccssccccssscccsccsccscccscccscccccssssccsccscccsccsccccccssssscccccccccc"
     style="display:inline;fill:url(#linearGradient41);fill-opacity:1;stroke:none;stroke-opacity:0.596078" />
</g>
</svg>
