<svg version="1.2" xmlns="http://www.w3.org/2000/svg" viewBox="0 0 445 561" width="980" height="1235">
	
	--dark: #1e1e1e;
	--greygreen: #536869;
	--highlightgreen: #8eaa90;
	--green: #738c7f;
	--grey:#434243;
	
	<title>meVectoriced</title>
	<style>
		.s0 { fill: #434343 } 
		.s1 { opacity: 1;fill: #738c7f} 
		.s2 { opacity: 1;fill: #8eaa90} 
      .s3 {fill: #1e1e1e}
	</style>
<g id="Background">
  <path id="Path 1" class="s1"
     d="m260.5 227.6c-0.9 0.8-1.6 2-1.6 2.5 0.1 0.5 0.7 0.9 1.4 0.9 0.6 0 2.8 1.1 4.7 2.5 1.9 1.4 4.3 2.5 5.3 2.5 0.9 0 1.7-0.2 1.7-0.5 0-0.3-0.7-1.8-1.5-3.5-0.8-1.6-2.9-3.7-4.5-4.5-1.6-0.8-3.2-1.5-3.4-1.5-0.3 0-1.2 0.7-2.1 1.6z" />
  <path
     id="Path 16"
     class="s2"
     d="m 256.0334,301.73579 -65.68689,60.58103 c -0.4,1.9 2.05349,3.88318 3.55349,5.68318 1.2,1.4 3.2,4.1 4.5,6 1.3,1.9 3,5.4 3.7,7.7 1.1,3.2 1.1,4.8 0.3,6.5 -0.6,1.3 -4.1,4.1 -7.9,6.3 -3.7,2.2 -9.5,6.3 -12.9,9.1 -3.3,2.7 -7.5,6.8 -9.2,9 -1.8,2.1 -4.1,6.6 -5.2,9.9 -1.1,3.3 -2.7,10.3 -3.6,15.5 -0.8,5.2 -2.2,16 -3.1,24 -1,8 -2.3,17.2 -3,20.5 -0.7,3.3 -3.2,12.5 -5.5,20.5 -2.3,8 -5.5,19.5 -7,25.5 -1.5,6 -3.5,15 -4.4,20 -0.9,5 -1.9,9.8 -2.1,10.8 -0.5,1.6 5,1.7 105.3,1.6 l 201.28932,-0.4 0.0244,-192.51872 C 446.01988,363.7741 360.55395,353.18154 360.7,352.8 c 0.53333,-0.86667 0.36667,-1.03333 -0.5,-0.5 -8.52518,-3.1152 -17.40938,-5.03366 -26.89944,-4.93259 -9.37726,-0.13445 -16.69082,2.94132 -23.18166,7.29687 z"
/>
  <path id="Path 6"
     class="s2"
     d="m 128.9,162.7 c -3.5,0.7 -6.8,1.8 -7.3,2.3 -0.6,0.6 -1.7,1 -2.6,1 -0.9,0 -3,1.2 -4.6,2.8 -2.6,2.3 -3.3,4 -4.6,12.2 -0.9,5.2 -2.2,13.6 -2.9,18.5 -0.6,5 -1.2,13.3 -1.2,18.5 0,5.2 0.3,10.5 0.6,11.8 0.4,1.2 1.9,3 3.4,4 1.8,1.1 2.8,2.6 2.8,4.2 0,6.85953 -21.490826,32.61857 -19.526747,40.14754 0.5,1.9 3.447541,3.55048 5.630716,5.22968 2.810581,1.7097 11.703511,8.27254 14.195911,8.32266 0.19213,-3.7142 4.02135,-2.769 8.59814,-4.01567 5.22113,1.42204 22.75632,17.27955 26.7809,18.49631 C 170.85278,313.03558 167.31917,260.12639 160.6,247 c -1.15363,-2.2537 0.2,-6.1 -0.5,-8.2 -0.6,-2.1 -2.1,-4.5 -3.4,-5.3 -1.2,-0.8 -2.8,-1.5 -3.5,-1.5 -0.6,0 -3.4,3 -6.1,6.8 l -17.82666,-11.43969 c 0.2,-2.7 -4.30699,0.46937 -5.90699,-0.73063 -1.2,-1 -1.90889,-3.10397 -3.60889,-4.00397 C 117.25746,221.12571 114,222.4 114,219.5 c 0,-1.9 0.8,-5 1.7,-6.7 0.9,-1.8 3.8,-5.3 6.3,-7.8 2.6,-2.5 4.6,-4.2 4.4,-3.7 -0.2,0.4 0.8,0.7 2.3,0.7 1.6,0 3.7,-0.7 4.8,-1.5 1.1,-0.9 3.6,-1.5 5.5,-1.5 3.3,0 8.11236,-0.37083 7.71236,-2.97083 5.23734,-3.15414 5.60816,-3.28331 6.21237,-5.95822 C 156.73622,175.94018 173.05868,172.18399 162.7,167 c -8.18975,-4.09855 -5.31708,-3.15829 -7.5,-2.3 -0.4,-0.4 -3.65745,-1.14466 -6.87083,-1.8958 C 141.0211,161.09592 136.15152,161.08855 128.9,162.7 Z"
 />
  <path
     id="Path 3"
     class="s1"
     d="m 126.5,159.5 c -2.2,0.8 -5,2.5 -6.2,3.8 -1.3,1.2 -6.71236,5.98739 -6.41236,6.28739 C 129.7879,160.08248 145.34513,161.58132 162.8,167 c 0.98873,0.32356 -5.49772,13.19796 -16.43158,28.0138 -3.66043,4.96004 -12.79243,2.85327 -20.09701,5.63541 -8.10852,3.08834 -9.99305,7.29196 -16.36626,18.82149 11.47031,6.3475 21.42505,14.21057 28.39695,25.05649 11.87659,-5.24513 14.56633,0.37722 22.2979,2.47281 3.21996,14.396 4.03041,18.64469 -6.1,58 0.33333,1.33333 1.33333,2 3,2 1.66667,0 2.93333,0.83333 3.8,2.5 0.6,1.4 1.5,2.5 2,2.5 38.61045,-21.28168 46.24663,-45.79379 51.4,-72.5 0.6,-5.4 0.5,-5.9 -1,-5.2 -1.4,0.6 -1.6,0.3 -1,-2 0.3,-1.6 0.5,-3.5 0.5,-4.3 -0.1,-0.8 -0.6,-5.3 -1.2,-10 -0.5,-4.7 -1.4,-10.3 -1.9,-12.5 -0.5,-2.2 -1.6,-5.8 -2.5,-8 -1,-2.2 -1.5,-4.7 -1.1,-5.5 0.3,-0.8 0.2,-1.7 -0.2,-2 -0.5,-0.3 -1.7,-2.3 -2.9,-4.5 -1.8,-3.5 -2.4,-4 -5.2,-3.7 -2.3,0.1 -3,-0.1 -2.4,-1 0.5,-0.9 0.2,-1 -1,-0.5 -1,0.4 -2.9,0.1 -4.3,-0.5 -1.3,-0.7 -2.6,-2.2 -2.7,-3.3 -0.2,-1.4 -1,-1.9 -2.6,-1.7 l -35.42077,-16.94994 c -4.1,-1 -8.47923,0.14994 -12.27923,0.24994 -3.8,0 -8.8,0.6 -11,1.4 z"
/>
  <path
     id="Path 4"
     class="s3"
     d="m 136.1,220 c -2.1,0.8 -2.3,1.4 -2.2,7.4 0,3.7 0.5,6.6 1.1,6.6 0.6,0 1.2,-0.9 1.5,-2 0.3,-1.2 1.3,-2 2.5,-2 1.8,0 1.9,0.5 1.4,3.8 2.80798,3.51003 1.93789,4.79955 2.9,3.7 1.46865,-2.20297 2.48423,-1.76612 3.87398,-4.26768 0.5,-1 1.32602,-2.03232 1.12602,-3.73232 -0.3,-1.8 0,-3.4 0.9,-4.1 0.7,-0.6 2.4,-1.5 3.8,-1.9 2.3,-0.8 2.4,-0.7 1.7,1.6 -0.6,1.9 -0.5,2.3 0.8,1.6 0.8,-0.4 1.7,-0.7 2,-0.7 0.3,0 0.5,-0.9 0.5,-2 0,-1.1 -0.7,-2.7 -1.5,-3.5 -1.1,-1.1 -3.7,-1.5 -9.7,-1.4 -4.6,0 -9.4,0.4 -10.7,0.9 z"
/>
  <path
     id="Path 5"
     class="s0"
     d="m 145,200.5 c -9.91374,-0.80677 -13.79297,0.23682 -22.5,5.8 -4.48502,5.53734 -8.93535,11.97386 -8.18338,12.04069 4.29979,0.38215 9.49349,1.03425 13.56119,-0.41083 5.44796,-1.93543 5.75644,-6.64993 13.82219,-8.82986 15.36126,-1.22706 9.43661,2.19555 23.66238,1.48412 4.01528,-4.82775 9.36708,-6.32588 7.72638,-6.81334 C 167.56836,202.13067 152.12476,200.6485 145,200.5 Z"
/>
  <path
     id="Path 8"
     class="s0"
     d="m106.1 280c-1.4 0.5-2.4 1.4-2.3 2 0.1 0.6 1.8 0.8 4 0.6 2-0.3 5.2-0.7 7-1 1.7-0.3 3-1 2.7-1.6-0.3-0.6-2.4-1-4.7-0.9-2.4 0-5.4 0.4-6.7 0.9z" />
  <path
     id="Path 15"
     class="s2"
     d="m 107.39698,304.01286 c -1.9,1.9 1.70302,3.08714 6.90302,8.18714 4.4,4.3 6.94953,10.44858 7.54953,14.14858 -0.77282,1.02676 11.57362,5.00212 11.15047,15.35142 -0.88476,4.49663 -0.64183,6.01554 1.17127,9.49111 0.66222,1.26944 1.59958,2.07612 4.17429,2.01683 13.11089,-0.30193 32.67278,-36.77157 7.71492,-43.57826 l -10.49016,-7.14953 c -0.6,-0.3 -3.41588,-0.34158 -3.41588,0.25842 0,0.5 -0.0544,4.26143 -1.15444,4.26143 -1.1,0 -3.73762,-4.4862 -6.43762,-5.0862 -2.6,-0.6 -6.44159,-1.13761 -8.34159,-1.53761 -2.7,-0.7 -7.32381,2.03667 -8.82381,3.63667 z"
/>
  <path
     id="Path 9"
     class="s1"
     d="m 262.3,195.4 c -2.3,1.2 -5.6,4.3 -7.2,6.7 -1.7,2.4 -3.3,5.7 -3.6,7.4 -0.6,2.7 -0.1,3.4 3.7,6.3 2.6,1.9 6.1,3.5 8.8,3.9 3.8,0.6 4.8,1.2 6.5,4.2 1,2 2,3 2.2,2.3 0.2,-0.6 0.7,-1.2 1.3,-1.2 0.6,0 0.9,2.6 0.7,6.3 -0.1,3.5 -4.5654,4.34254 -5.1654,5.14254 -0.6,0.8 -2.9673,4.02476 -7.5673,6.32476 -4.6,2.3 -7.1673,6.2327 -7.9673,6.2327 -0.8,0 -2.1,-0.5 -2.8,-1.2 -0.7,-0.7 -1.2,-2.4 -1.3,-3.8 0,-1.7 -1,-3.2 -3.4,-4.8 -1.9,-1.2 -4,-2.2 -4.5,-2.2 -0.6,0 -1.5,1.5 -2.1,3.2 -0.5,1.8 -1.4,7.8 -1.8,13.3 -0.6,6.6 -0.5,11.8 0.3,15.5 0.6,3 1.4,6.1 1.9,6.7 0.4,0.7 0.048,4.51657 0.94796,4.21657 1.3,-0.4 1.94376,0.31458 2.94376,2.71458 1,2.3 3.20828,-0.63115 3.40828,-1.93115 0.2,-0.9 -0.90828,1.71657 -0.30828,1.71657 0.5,0 2.11248,-0.96453 2.91248,0.23547 0.8,1.3 1.71459,1.55111 1.54481,3.45111 -0.41143,2.15624 -2.03431,2.30945 -2.33431,4.00945 -0.5,2.5 -0.7448,2.17609 -1.8063,4.55625 -1.7,0.6 -0.8084,5.13115 -1.0084,6.03115 -7.41924,34.49326 -32.32784,47.26127 -56.9,53.88809 -2.22476,-0.90794 -5.29508,-0.29111 -5.59508,0.60889 -0.3,1.2 2.69508,6.10302 4.59508,7.70302 l 2.8,2.4 c 0.56081,-16.38101 63.41495,-3.52527 56.4,-38.6 -0.0963,-2.43337 -7.94064,-9.16969 -1.54754,-5.16437 3.48432,3.86414 4.72337,4.74482 4.84754,7.46437 0.80831,5.65444 -0.37407,22.85828 1.25588,18.10928 C 257.67999,331.88842 263.6848,373.28573 264,387.2 c 0,1.6 -0.9,4.5 -1.9,6.5 -1,2.1 -2.82079,2.6673 -3.82079,3.6673 l -6.88318,3.95349 c 3.38223,1.30479 5.57387,3.14911 7.30397,4.87921 15.35875,-15.7505 28.68706,-15.17918 47.14985,-8.44178 -2.32587,-7.65803 -6.17995,-11.8022 -8.94982,-18.55822 9.09059,-28.03003 64.97273,-25.59351 68.75313,-25.519 1.44329,0.0285 -7.60029,-3.40957 -21.15316,-7.481 -11,-3.2 -21.6,-6.7 -23.5,-7.7 -1.9,-0.9 -5.3,-3.2 -7.5,-4.9 -2.2,-1.8 -5,-4.9 -6.3,-6.9 -1.5,-2.6 -1.9,-4.2 -1.3,-5.5 0.6,-1.2 0.3,-2.4 -1,-4.2 -1.2,-1.5 -2.6,-6.1 -3.5,-11.5 -0.8,-4.9 -1.7,-10 -1.9,-11.3 -0.3,-1.2 -1.2,-3.48121 -2,-3.48121 -0.8,0 -1.06703,2.1085 -1.5,2.78121 -3.61416,5.61527 -3.52941,4.99576 -5.6,10.5 -1,0.9 -1.3,2.4 -1,3.7 0.3,1.3 2.5,3.5 4.8,5 2.3,1.6 5.7,5 7.6,7.8 1.8,2.7 3,5.3 2.5,5.8 -0.4,0.4 -1.9,-0.4 -3.3,-1.8 -1.4,-1.4 -3.2,-2.5 -4,-2.5 -0.8,0 -3.8,-2.3 -6.5,-5 -2.8,-2.8 -7.4,-6.4 -10.3,-8.1 -3.8,-2.1 -5.23762,-4.17032 -6.33762,-3.47032 -1,0.7 -2.66238,2.17032 -4.46238,1.27032 -1.4,-0.6 -3,-2.7 -3.7,-4.5 -0.8,-2.1 -0.55047,-6.27826 -2.05047,-6.57826 -1.6,-0.3 -1.83762,0.10794 -1.83762,-1.69206 0,-1.6 -2.41191,-0.92968 -3.31191,-0.92968 -1,0 -1.6,-1.1 -1.8,-3.3 l -0.2,-3.4 c 7.7,5.3 8.58809,7.88714 9.18809,7.88714 0.6,-0.1 2.74556,1.2208 3.84556,2.5208 1.1,1.4 4.46635,1.79206 6.16635,2.29206 3,0.9 3.3,0.8 3.3,-1 0,-1.1 1.04953,-2.48318 0.44953,-2.48318 -0.6,0 -1.54953,-1.21682 -0.44953,-3.31682 6.63932,-12.17209 -1.03952,-6.05647 -4.4,-30.7 -0.3,-3.2 1.64953,-4.95841 4.34953,-9.75841 1.8,-3.3 7.21984,-7.89603 8.41984,-10.89603 1.1,-3 3.90794,-7.53365 4.70794,-11.33365 C 292.97731,225.81191 288,219.1 288,216.7 c 0,-2.3 -0.5,-5.8 -1.1,-7.7 -0.7,-1.9 -2.5,-5.4 -4.1,-7.8 -1.5,-2.3 -4.3,-5.1 -6.1,-6.2 -1.7,-1.1 -4.8,-2 -6.7,-2 -1.9,0 -5.4,1.1 -7.7,2.4 z"
/>
  <path
     id="Path 0"
     class="s0"
     d="m 214,114.5 c -20.42717,2.45343 -22.05432,3.29859 -44.4,11.3 0.2,-0.5 -1.5,-0.3 -3.9,0.3 -2.3,0.6 -7.4,2.6 -11.2,4.6 -3.8,1.9 -9.7,5.5 -13,7.9 -3.3,2.4 -8.1,6.2 -10.6,8.6 -2.5,2.4 -7.4,7.6 -10.8,11.6 -3.3,3.9 -9.50716,14.59442 -9.40716,15.09442 0.2,0.6 6.51964,-7.69442 9.6613,-9.63818 2.7,-2.3 5.74586,-4.75624 7.64586,-5.35624 1.9,-0.5 6.4,-0.9 10,-0.9 3.6,0 9.9,0.9 14,1.9 4.1,1 10.4,3.3 14,5.1 3.6,1.8 8.9,4.8 11.8,6.6 2.8,1.9 6.2,10.06445 7.4,9.96445 23.12428,-2.89054 58.78588,83.14704 -22,130.43555 -0.4,0 -1.3,-1.1 -2,-2.5 -0.8,-1.66667 -2.03333,-2.5 -3.7,-2.5 -1.66667,0 -2.66667,-0.66667 -3,-2 -0.3,-1.1 -1.7,-2.9 -3.3,-3.9 -1.5,-1 -6.8,-3.5 -11.7,-5.5 -5.9,-2.3 -10.2,-4.8 -12.5,-7.1 -1.9,-1.9 -3.81682,-1.32571 -4.81682,-1.32571 -0.9,0 -3.48318,-1.47429 -5.18318,-0.67429 -1.7,0.8 -4.8,3.2 -7,5.3 -2.7,2.5 -4.2,4.8 -4.6,7.2 -0.3,1.9 -0.1,4.6 0.3,5.9 l 3.94064,0.3673 C 125.90642,298.38531 137.3496,316.15032 149.2,317 c 1.3,-0.1 3,0.7 3.9,1.7 1,1.1 1.9,4.5 2.3,9.1 1.03341,6.35011 -1.94673,9.87903 -6.7,14 -3.48286,3.74135 -17.32741,5.83501 -14.41692,9.75096 1.38765,1.86702 2.07389,5.6282 9.71692,10.84904 3.1,0.5 8.8,-0.1 18,-1.9 37.31755,-4.96553 75.66069,-14.11794 83,-52 0.6,-3.3 1.3,-6.8 1.6,-7.8 0.68387,-3.07743 2.80385,-8.89235 5.57127,-14.66635 0.8392,-1.75092 3.38417,-6.03745 2.49875,-5.8 -3.30046,-0.57784 -6.79257,-0.41372 -11.85744,-2.41622 -2.28362,-0.90288 -3.49392,-4.22412 -4.41258,-8.81743 -0.8,-3.7 -0.9,-8.9 -0.3,-15.5 0.4,-5.5 1.3,-11.5 1.8,-13.3 0.6,-1.7 1.5,-3.2 2.1,-3.2 0.6,0 2.6,1 4.5,2.2 2.4,1.6 3.4,3.1 3.4,4.8 0.1,1.4 0.6,3.1 1.3,3.8 0.7,0.7 2,1.2 2.8,1.2 0.8,0 6.17821,-0.7506 9.9,-4.3 7.18881,-6.85583 16.42096,-11.35511 14.29242,-14.46599 C 273.15288,222.86869 265.2687,219.90032 264,219.7 c -2.7,-0.4 -6.2,-2 -8.8,-3.9 -3.8,-2.9 -4.3,-3.6 -3.7,-6.3 0.3,-1.7 1.8,-5 3.3,-7.4 1.7,-2.9 4.3,-5.2 7.2,-6.7 2.5,-1.3 6.1,-2.4 8,-2.4 1.9,0 5,0.9 6.7,2 1.8,1.1 4.6,3.9 6.1,6.2 1.6,2.4 3.4,5.9 4.1,7.8 0.6,1.9 1.1,5.4 1.1,7.7 0,2.4 1.71588,5.3673 0.81588,9.0673 -0.8,3.8 -2.4,9.3 -3.5,12.3 -1.2,3 -6.01588,10.1327 -7.81588,13.4327 -8.61061,13.63677 -2.60351,32.51025 1.5,46.5 0.50664,1.72723 -0.3,1.9 -3.3,1 -5.57655,-3.01294 -9.59146,-6.12325 -14.2,-9.3 l -5,-3.4 c 0.4,5.6 0.43862,6.00793 0.59067,6.1021 3.05899,1.89447 7.28554,6.72036 8.60933,9.91869 0.7,1.8 1.93762,3.77921 2.97524,5.94953 1.31615,-1.0131 5.04519,-2.95114 11.52476,0.62968 2.9,1.7 7.5,5.3 10.3,8.1 2.7,2.7 5.7,5 6.5,5 0.8,0 2.6,1.1 4,2.5 1.4,1.4 2.9,2.2 3.3,1.8 0.5,-0.5 -0.7,-3.1 -2.5,-5.8 -1.9,-2.8 -5.3,-6.2 -7.6,-7.8 -2.3,-1.5 -4.5,-3.7 -4.8,-5 -0.3,-1.3 0,-2.8 1,-3.7 l 5.6,-10.5 c 0.5979,-0.8 1.26996,-2.82616 1.79895,-2.22602 1.35519,1.53745 1.14481,1.72602 1.70105,2.92602 0.2,1.3 1.1,6.4 2,11.3 0.8,4.9 2.2,10 3,11.2 0.8,1.3 2,2.3 2.6,2.3 0.6,0 3.9,-2.8 7.3,-6.3 3.7,-3.7 7,-8 8,-10.7 1.2,-3 1.6,-5.8 1.2,-8.3 -0.4,-2.5 -2,-5.2 -5.1,-8.5 -2.4,-2.6 -4.4,-5.3 -4.5,-6 0,-0.6 0.6,-1.5 1.2,-1.8 0.7,-0.4 4.1,0 7.5,0.7 4.9,1.1 6.5,1.1 7.5,0.2 1.1,-1 1,-1.9 -0.2,-4.5 -0.8,-1.8 -3.5,-5.5 -6,-8.2 -2.5,-2.7 -7,-6.5 -10,-8.4 -3,-1.9 -5.6,-3.5 -5.7,-3.6 -0.1,-0.1 1.4,-3.9 3.4,-8.6 2,-4.7 5,-10.5 6.8,-13 1.8,-2.5 4.4,-6.8 5.8,-9.5 1.3,-2.8 3,-7.7 3.7,-11 1,-4.8 1,-7.6 0,-14 -0.8,-4.8 -1,-11.4 -0.7,-16.5 0.4,-4.7 2.2,-14.8 4.2,-22.5 1.9,-7.7 9.99147,-22.53313 9.99147,-24.63313 C 328.81261,130.60995 313.45758,124.49958 300.5,119.8 c -6.1,-2.2 -13.5,-4.7 -16.5,-5.4 -4.1,-1 -13.1,-1.3 -35,-1.3 -20.5,0.1 -31.2,0.5 -35,1.4 z"
/>
</g>
</svg>
