<svg xmlns="http://www.w3.org/2000/svg" xmlns:xlink="http://www.w3.org/1999/xlink" id="svg1" width="980" height="1235" version="1.2" viewBox="0 0 445 561"><defs id="defs1"><linearGradient id="linearGradient40"><stop id="stop40" offset="0" style="stop-color:#011bb6;stop-opacity:1"/><stop id="stop41" offset="1" style="stop-color:#010a4d;stop-opacity:1"/></linearGradient><linearGradient id="linearGradient36"><stop id="stop36" offset="0" style="stop-color:#fcffff;stop-opacity:1"/><stop id="stop37" offset="1" style="stop-color:#d0ddf1;stop-opacity:1"/></linearGradient><linearGradient id="linearGradient32"><stop id="stop33" offset="0" style="stop-color:#fcffff;stop-opacity:1"/><stop id="stop34" offset="1" style="stop-color:#e0e9f5;stop-opacity:1"/></linearGradient><linearGradient id="linearGradient30"><stop id="stop31" offset="0" style="stop-color:#fcffff;stop-opacity:1"/><stop id="stop32" offset=".673" style="stop-color:#abc6ea;stop-opacity:1"/></linearGradient><linearGradient id="linearGradient11"><stop id="stop11" offset="0" style="stop-color:#fcffff;stop-opacity:1"/><stop id="stop12" offset=".877" style="stop-color:#e0e9f5;stop-opacity:1"/></linearGradient><linearGradient xlink:href="#linearGradient32" id="linearGradient34" x1="106.883" x2="158.091" y1="326.737" y2="326.737" gradientUnits="userSpaceOnUse"/><linearGradient xlink:href="#linearGradient36" id="linearGradient37" x1="138.473" x2="445.121" y1="431.332" y2="431.332" gradientUnits="userSpaceOnUse"/><linearGradient xlink:href="#linearGradient30" id="linearGradient39" x1="137.602" x2="455.598" y1="454.216" y2="454.216" gradientUnits="userSpaceOnUse"/><linearGradient xlink:href="#linearGradient40" id="linearGradient41" x1="111.019" x2="341.129" y1="219.731" y2="219.731" gradientUnits="userSpaceOnUse"/><radialGradient xlink:href="#linearGradient11" id="radialGradient36" cx="128.105" cy="265.868" r="62.577" fx="128.105" fy="265.868" gradientTransform="matrix(1 0 0 1.2679 0 -64.525)" gradientUnits="userSpaceOnUse"/><color-profile xlink:href="../../../../../../Windows/system32/spool/drivers/color/RSWOP.icm" id="color-profile2" name="Agfa-:-Swop-Standard"/></defs>--dark: #1e1e1e;
	--greygreen: #536869;
	--highlightgreen: #8eaa90;
	--green: #738c7f;
	--grey:#434243;<style id="style1">.s0{fill:#1e1e1e}.s1,.s2{opacity:1;fill:#536869}.s2{fill:#434343}</style><g id="layer2"><g id="Background" style="fill:#1832fc;fill-opacity:1;stroke:none" transform="translate(593.323 -87.827)"><path id="Path 0-5" d="M-397.565 201.638c-20.427 2.454-22.054 3.299-44.4 11.3.2-.5-1.5-.3-3.9.3-2.3.6-7.4 2.6-11.2 4.6-3.8 1.9-9.7 5.5-13 7.9-3.3 2.4-8.1 6.2-10.6 8.6-2.5 2.4-7.4 7.6-10.8 11.6-3.3 3.9-8.817 13.905-8.717 14.405.2.6 7.294-3.59 10.435-5.533 2.7-2.3 7.698-4.268 9.598-4.868 1.9-.5 5.424.563 9.024.563 3.6 0 9.168.9 13.268 1.9 4.1 1 11.376 4.764 14.976 6.564 3.6 1.8 8.311 4.586 11.211 6.386 2.8 1.9 11.93 9.571 13.13 9.471 23.164 18.68 40.266 82.026-29.825 124.312-.4 0-1.3-1.1-2-2.5-.8-1.667-2.033-2.5-3.7-2.5-1.666 0-2.666-.667-3-2-.3-1.1-1.7-2.9-3.3-3.9-1.5-1-6.8-3.5-11.7-5.5-5.9-2.3-10.2-4.8-12.5-7.1-1.9-1.9-3.816-1.326-4.816-1.326-.9 0-3.484-1.474-5.184-.674-1.7.8-4.8 3.2-7 5.3-2.7 2.5-4.2 4.8-4.6 7.2-.3 1.9-.1 4.6.3 5.9l3.941.367c16.266-6.882 27.709 10.883 39.56 11.733 1.3-.1 3 .7 3.9 1.7 1 1.1 1.9 4.5 2.3 9.1 1.033 6.35-1.947 9.88-6.7 14-3.483 3.742-17.328 5.835-14.418 9.751 1.388 1.867 2.074 5.628 9.717 10.85 3.1.5 22.946-4.241 32.146-6.041 60.36 22.346 85.042-56.728 78.298-88.395-.8-3.7-12.545-9.072-11.945-15.672.4-5.5-3.099-10.293-2.599-12.093.6-1.7-1.305-6.371-.705-6.371s5.405 4.171 7.305 5.371c2.4 1.6 3.4 3.1 3.4 4.8.1 1.4-18.185 9.687 1.3 3.8 45.846-13.851 10.486-28.856 3.6-45.7 1.7-2.9 4.3-5.2 7.2-6.7 2.5-1.3 6.1-2.4 8-2.4 1.9 0 5 .9 6.7 2 1.8 1.1 4.6 3.9 6.1 6.2 1.6 2.4 3.4 5.9 4.1 7.8.6 1.9 1.1 5.4 1.1 7.7 0 2.4 1.716 5.367.816 9.067-.8 3.8-2.4 9.3-3.5 12.3-1.2 3-6.016 10.133-7.816 13.433-17.19 13.228-2.78 32.502 1.5 46.5.527 1.721-1.162-2.24-4.162-3.14-2.99-8.878-5.969-7.503-10.577-10.68l-7.76 2.12c.296 7.209 2.128 7 12.175 21.97 1.316-1.013 5.045-2.95 11.524.63 2.9 1.7 7.5 5.3 10.3 8.1 2.7 2.7 5.7 5 6.5 5 .8 0 2.6 1.1 4 2.5s2.9 2.2 3.3 1.8c.5-.5-.7-3.1-2.5-5.8-1.9-2.8-5.3-6.2-7.6-7.8-2.3-1.5-4.5-3.7-4.8-5-.3-1.3 0-2.8 1-3.7l5.6-10.5c.598-.8 1.27-2.826 1.8-2.226 1.355 1.538 1.144 1.726 1.7 2.926.2 1.3 1.1 6.4 2 11.3.8 4.9 4.701 7.743 5.501 8.943.8 1.3-.5 4.557.1 4.557s3.229-3.593 6.629-7.093c3.7-3.7 5.902-9.098 6.902-11.798 1.2-3 1.112-6.044.712-8.544-.4-2.5-.414-2.82-2.844-6.365-2.4-2.6-4.4-5.3-4.5-6 0-.6.6-1.5 1.2-1.8.7-.4.929-.732 3.475-1.74 5.144-.12 10.281 6.468 12.501 8.74 1.1-1 .024-8-1.176-10.6-.8-1.8-3.5-5.5-6-8.2-2.5-2.7-7-6.5-10-8.4-3-1.9-5.6-3.5-5.7-3.6-.1-.1 1.4-3.9 3.4-8.6 2-4.7 5-10.5 6.8-13 1.8-2.5 4.4-6.8 5.8-9.5 1.3-2.8 3-7.7 3.7-11 1-4.8 1-7.6 0-14-.8-4.8-1-11.4-.7-16.5.4-4.7 2.2-14.8 4.2-22.5 1.9-7.7 9.992-22.533 9.992-24.633-12.679-3.257-28.034-9.367-40.992-14.067-6.1-2.2-13.5-4.7-16.5-5.4-4.1-1-13.1-1.3-35-1.3-20.5.1-31.2.5-35 1.4z" class="s0" style="fill:#1832fc;fill-opacity:1;stroke:none;stroke-opacity:1"/><path id="Path 16-2" d="m-355.531 388.874-65.687 60.581c-.4 1.9 2.053 3.883 3.553 5.683 1.2 1.4 3.2 4.1 4.5 6 1.3 1.9 3 5.4 3.7 7.7 1.1 3.2 1.1 4.8.3 6.5-.6 1.3-4.1 4.1-7.9 6.3-3.7 2.2-9.5 6.3-12.9 9.1-3.3 2.7-7.5 6.8-9.2 9-1.8 2.1-4.1 6.6-5.2 9.9-1.1 3.3-2.7 10.3-3.6 15.5-.8 5.2-2.2 16-3.1 24-1 8-2.3 17.2-3 20.5-.7 3.3-3.2 12.5-5.5 20.5s-5.5 19.5-7 25.5-3.5 15-4.4 20c-.9 5-1.9 9.8-2.1 10.8-.5 1.6 5 1.7 105.3 1.6l201.29-.4.024-192.519c.906-4.207-84.56-14.8-84.414-15.18.534-.868.367-1.034-.5-.5-8.525-3.116-17.409-5.035-26.899-4.933-9.377-.135-16.69 2.94-23.182 7.296z" class="s2" style="fill:#1832fc;fill-opacity:1;stroke:none;stroke-opacity:1"/><path id="Path 6-2" d="M-481.853 249.844c-3.578.7-6.952 1.8-7.463 2.3-.613.6-1.738 1-2.658 1-.92 0-3.067 1.2-4.703 2.8-2.658 2.299-3.374 3.999-4.703 12.198-.92 5.2-2.249 13.6-2.965 18.499-.613 5-1.226 13.299-1.226 18.498 0 5.2.306 10.5.613 11.8.409 1.2 1.942 3 3.476 4 1.84 1.1 2.863 2.599 2.863 4.199 0 6.859-21.972 32.616-19.964 40.144.511 1.9 3.525 3.55 5.757 5.23 2.873 1.71 11.965 8.272 14.513 8.322.197-3.714 4.111-2.77 8.79-4.016 5.338 1.422 42.064 30.956 46.179 32.172 23.18 6.855 62.468-91.814 45.766-69.575 1.777-30.375 4.123-78.9-49.719-83.272-8.373-4.098-5.436-3.158-7.668-2.3-.409-.4-3.739-1.144-7.024-1.895-7.472-1.708-12.45-1.716-19.864-.104z" class="s2" style="fill:#1832fc;fill-opacity:1;stroke:none;stroke-width:1.01108;stroke-opacity:1"/><path id="Path 0-0-8-2-3" d="M-412.048 276.658c-28.042-21.643-4.733 5.455-3.62 7.337 8.547 28.753 10.797 43.574 10.314-1.571 3.68-4.932 5.523-13.397 6.914-17.631z" class="s0" style="fill:#1832fc;fill-opacity:1;stroke:none;stroke-width:1.47669;stroke-opacity:1"/><path id="Path 4-8" d="M-477.643 304.534c-2.212 1.709-3.067 1.953-5.506 7.691 0 4.517.614 8.057 1.35 8.057.737 0 1.473-1.099 1.842-2.442.368-1.464 3.199-3.35 4.362-4.252 1.779-1.38 1.125-1.288.425 6.45 3.447 4.284 2.379 5.858 3.56 4.516 1.803-2.69 3.05-2.156 4.756-5.21.613-1.22 1.627-2.48 1.382-4.555-.368-2.197 0-4.15 1.105-5.005.859-.732 2.946-1.83 4.665-2.32 2.823-.976 2.946-.854 2.086 1.954-.736 2.32-.613 2.807.982 1.953.983-.488 2.087-.855 2.456-.855.368 0 .613-1.098.613-2.44 0-1.344-.859-3.297-1.841-4.273-1.35-1.343-4.542-1.831-11.907-1.709-5.647 0-8.734 1.83-10.33 2.44z" class="s0" style="fill:#1832fc;fill-opacity:1;stroke:none;stroke-width:1.22411;stroke-opacity:1"/><path id="Path 5-7" d="M-466.565 287.638c-9.67 1.877-9.645 1.945-18.352 6.044-4.485 5.537-13.083 11.73-12.331 11.797 4.3.382 10.225-1.893 14.293-3.339 5.448-1.935 5.025-3.722 13.09-5.902 15.362-1.227 9.437 2.196 23.663 1.484 4.015-4.827 9.367-6.326 7.726-6.813-5.52-1.64-20.964-3.122-28.089-3.27z" class="s0" style="fill:#1832fc;fill-opacity:1;stroke:none;stroke-opacity:1"/><path id="Path 8-3" d="M-505.465 367.138c-1.4.5-2.4 1.4-2.3 2 .1.6 1.8.8 4 .6 2-.3 5.2-.7 7-1 1.7-.3 3-1 2.7-1.6-.3-.6-2.4-1-4.7-.9-2.4 0-5.4.4-6.7.9z" class="s0" style="fill:#1832fc;fill-opacity:1;stroke:none;stroke-opacity:1"/><path id="Path 15-4" d="M-504.168 391.151c-1.9 1.9 1.703 3.087 6.903 8.187 4.4 4.3 6.95 10.449 7.55 14.149-.773 1.026 11.574 5.002 11.15 15.351-.884 4.497-.641 6.016 1.172 9.491.662 1.27 1.6 2.076 4.174 2.017 13.11-.302 32.673-36.771 7.715-43.578l-10.49-7.15c-.6-.3-3.416-.341-3.416.259 0 .5-.055 4.261-1.155 4.261s-3.737-4.486-6.437-5.086c-2.6-.6-6.442-1.138-8.342-1.538-2.7-.7-7.324 2.037-8.824 3.637z" class="s2" style="fill:#1832fc;fill-opacity:1;stroke:none;stroke-opacity:1"/><path id="Path 9-9" d="M-349.696 282.107c-2.3 1.2-5.772 4.214-7.372 6.614-1.7 2.4-3.387 5.958-3.687 7.658-.6 2.7.59 3.66 4.39 6.56 15.535 7.55 28.02 15.408 6.768 26.966-3.849 2.117-7.012 3.115-12.068 1.233 0-1.7-1-3.2-3.4-4.8-1.9-1.2-8.025-6.957-8.525-6.957-.6 0 2.525 6.257 1.925 7.957-.064.234-2.772 16.22 10.015 23.154 16.617 18.56-29.407 66.939-60.215 91.234-2.224-.908-5.295-.29-5.595.61-.3 1.2 2.695 6.102 4.595 7.702l2.8 2.4c.561-16.38 61.173-3.094 54.158-38.169-.07-1.762-1.587-7.71-.54-6.483 2.503 2.928 6.02 4.918 6.082 8.352.809 5.655-.374 22.858 1.256 18.11 5.224-15.221 11.23 26.176 11.544 40.09 0 1.6-.9 4.5-1.9 6.5-1 2.1-2.82 2.667-3.82 3.667l-6.884 3.954c3.383 1.305 5.574 3.149 7.304 4.88 15.36-15.751 28.687-15.18 47.15-8.443-2.326-7.658-6.18-11.802-8.95-18.558 9.091-28.03 64.973-25.593 68.754-25.519 1.443.029-7.6-3.41-21.154-7.48-11-3.2-21.6-6.7-23.5-7.7-1.9-.9-5.3-3.2-7.5-4.9-2.2-1.8-5-4.9-6.3-6.9-1.5-2.6-1.9-4.2-1.3-5.5.6-1.2.3-2.4-1-4.2-1.2-1.5-1.929-6.284-2.829-11.684-.8-4.9-2.37-9.817-2.57-11.117-.3-1.2-1.2-3.481-2-3.481s-1.068 2.108-1.5 2.781c-3.615 5.615-3.53 4.996-5.6 10.5-1 .9-1.3 2.4-1 3.7.3 1.3 2.5 3.5 4.8 5 2.3 1.6 5.7 5 7.6 7.8 1.8 2.7 3 5.3 2.5 5.8-.4.4-1.9-.4-3.3-1.8s-3.2-2.5-4-2.5c-.8 0-3.8-2.3-6.5-5-2.8-2.8-7.4-6.4-10.3-8.1-3.8-2.1-5.238-4.17-6.338-3.47-1 .7-2.663 2.17-4.463 1.27-1.4-.6-3-2.7-3.7-4.5-4.221-8.688-5.204-9.175-9-12.5l-.2-3.4c2.66 3.572 6.54-2.68 8.765 3.211 2.198-3.235 8.735 8.99 10.435 9.49 3 .9 4.077 1.575 4.077-.225 4.617-15.299-4.328-25.787-9.576-35.81-.3-3.2 6.049-6.424 8.749-11.224 1.8-3.3 7.22-7.896 8.42-10.896 1.1-3 3.908-7.534 4.708-11.334.9-3.7-4.078-10.412-4.078-12.812 0-2.3-.5-5.8-1.1-7.7-.7-1.9-2.5-5.4-4.1-7.8-1.5-2.3-4.3-5.1-6.1-6.2-1.7-1.1-4.8-2-6.7-2-1.9 0-5.83.669-8.13 1.969z" class="s1" style="fill:#1832fc;fill-opacity:1;stroke:none;stroke-opacity:1"/><path id="Path 16-4-3" d="M-409.537 475.409c-.6 1.3-4.1 4.1-7.9 6.3-3.7 2.2-9.5 6.3-12.9 9.1-3.3 2.7-7.5 6.8-9.2 9-1.8 2.1-4.1 6.6-5.2 9.9-1.1 3.3-2.7 10.3-3.6 15.5-.8 5.2-2.2 16-3.1 24-1 8-2.3 17.2-3 20.5-.7 3.3-3.2 12.5-5.5 20.5s-5.5 19.5-7 25.5-3.5 15-4.4 20c-.9 5-1.9 9.8-2.1 10.8-.5 1.6 5 1.7 105.3 1.6l201.29-.4.024-192.519c.906-4.207-84.56-14.8-84.414-15.181.533-.867.366-1.033-.5-.5-8.525-3.115-17.41-5.034-26.9-4.933-9.377-.134-16.69 2.942-23.181 7.297-33.52 30.274-68.7 47.262-107.72 33.536z" class="s2" style="fill:#1832fc;fill-opacity:1;stroke:none;stroke-opacity:1"/><path id="Path 0-0-5" d="M-499.632 255.25c.8 4.9-2.89 6.19-2.09 7.39.8 1.3-.5 4.557.1 4.557s3.229-3.593 6.629-7.093c3.7-3.7 5.902-9.097 6.902-11.797z" class="s0" style="fill:#1832fc;fill-opacity:1;stroke:none;stroke-opacity:1"/><path id="Path 0-0-8-5" d="M-497.405 256.947c.8 4.9-2.89 6.191-2.09 7.391.8 1.3-.5 4.557.1 4.557s3.23-3.593 6.63-7.093c3.7-3.7 5.901-9.098 6.901-11.798z" class="s0" style="fill:#1832fc;fill-opacity:1;stroke:none;stroke-opacity:1"/><path id="Path 0-0-8-2-0-4" d="M-449.89 244.878c1.112 7.685 13.208 21.154 14.32 23.036 7.225 2.716.417 22.768 7.756 11.037.442-.708 4.066-8.562 2.386-14.679 3.681-4.93 5.524-13.396 6.914-17.63z" class="s0" style="fill:#1832fc;fill-opacity:1;stroke:none;stroke-width:1.47669;stroke-opacity:1"/><path id="Path 0-2-6" d="M-397.927 201.618c-20.427 2.453-22.054 3.299-44.4 11.3.2-.5-1.5-.3-3.9.3-2.3.6-7.4 2.6-11.2 4.6-3.8 1.9-9.7 5.5-13 7.9-3.3 2.4-8.1 6.2-10.6 8.6-2.5 2.4-7.4 7.6-10.8 11.6-3.3 3.9-8.817 13.904-8.717 14.404.2.6 7.293-3.589 10.435-5.532 2.7-2.3 7.697-4.269 9.597-4.869 1.9-.5 5.424.564 9.024.564 3.6 0 9.169.9 13.269 1.9 4.1 1 11.375 4.764 14.975 6.564 3.6 1.8 8.311 4.586 11.211 6.386 2.8 1.9 11.93 9.571 13.13 9.471l46.876 52.512c.6-1.7-1.306-6.372-.706-6.372.6 0 5.406 4.172 7.306 5.372 2.4 1.6 3.4 3.1 3.4 4.8.1 1.4-18.185 9.687 1.3 3.8 45.846-13.851 10.485-28.856 3.6-45.7 1.7-2.9 4.3-5.2 7.2-6.7 2.5-1.3 6.1-2.4 8-2.4 1.9 0 5 .9 6.7 2 1.8 1.1 4.6 3.9 6.1 6.2 1.6 2.4 3.4 5.9 4.1 7.8.6 1.9 1.1 5.4 1.1 7.7 0 2.4 1.716 5.367.816 9.067-.8 3.8-2.4 9.3-3.5 12.3-1.2 3-6.016 10.133-7.816 13.433-17.19 13.228-2.78 32.502 1.5 46.5.526 1.721-1.163-2.24-4.163-3.14-2.989-8.878-5.968-7.504-10.577-10.68l-7.76 2.12c.297 7.209 2.128 6.999 12.175 21.97 1.316-1.013 5.045-2.95 11.525.63 2.9 1.7 7.5 5.3 10.3 8.1 2.7 2.7 5.7 5 6.5 5 .8 0 2.6 1.1 4 2.5s2.9 2.2 3.3 1.8c.5-.5-.7-3.1-2.5-5.8-1.9-2.8-5.3-6.2-7.6-7.8-2.3-1.5-4.5-3.7-4.8-5-.3-1.3 0-2.8 1-3.7l5.6-10.5c.598-.8 1.27-2.826 1.799-2.226 1.355 1.537 1.145 1.726 1.7 2.926.2 1.3 1.1 6.4 2 11.3.8 4.9 4.701 7.743 5.501 8.943.8 1.3-.5 4.557.1 4.557s3.229-3.593 6.629-7.093c3.7-3.7 5.902-9.098 6.902-11.798 1.2-3 1.112-6.044.712-8.544-.4-2.5-.414-2.821-2.843-6.365-2.4-2.6-4.4-5.3-4.5-6 0-.6.6-1.5 1.2-1.8.7-.4.928-.732 3.474-1.74 5.144-.12 10.282 6.468 12.502 8.74 1.1-1 .024-8-1.176-10.6-.8-1.8-3.5-5.5-6-8.2-2.5-2.7-7-6.5-10-8.4-3-1.9-5.6-3.5-5.7-3.6-.1-.1 1.4-3.9 3.4-8.6 2-4.7 5-10.5 6.8-13 1.8-2.5 4.4-6.8 5.8-9.5 1.3-2.8 3-7.7 3.7-11 1-4.8 1-7.6 0-14-.8-4.8-1-11.4-.7-16.5.4-4.7 2.2-14.8 4.2-22.5 1.9-7.7 9.991-22.533 9.991-24.633-12.679-3.257-28.034-9.367-40.991-14.067-6.1-2.2-13.5-4.7-16.5-5.4-4.1-1-13.1-1.3-35-1.3-20.5.1-31.2.5-35 1.4z" class="s0" style="fill:#1832fc;fill-opacity:1;stroke:none;stroke-opacity:1"/></g></g><g id="layer1"><path id="Path 0" d="M214 114.5c-20.427 2.453-22.054 3.299-44.4 11.3.2-.5-1.5-.3-3.9.3-2.3.6-7.4 2.6-11.2 4.6-3.8 1.9-9.7 5.5-13 7.9-3.3 2.4-8.1 6.2-10.6 8.6-2.5 2.4-7.4 7.6-10.8 11.6-3.3 3.9-8.817 13.904-8.717 14.404.2.6 7.293-3.588 10.435-5.532 2.7-2.3 7.698-4.269 9.598-4.869 1.9-.5 5.424.564 9.024.564 3.6 0 9.168.9 13.268 1.9 4.1 1 11.376 4.764 14.976 6.564 3.6 1.8 8.31 4.586 11.21 6.386 2.8 1.9 11.93 9.571 13.13 9.471C216.188 206.368 233.29 269.714 163.2 312c-.4 0-1.3-1.1-2-2.5-.8-1.667-2.033-2.5-3.7-2.5-1.667 0-2.667-.667-3-2-.3-1.1-1.7-2.9-3.3-3.9-1.5-1-6.8-3.5-11.7-5.5-5.9-2.3-10.2-4.8-12.5-7.1-1.9-1.9-3.817-1.326-4.817-1.326-.9 0-3.483-1.474-5.183-.674-1.7.8-4.8 3.2-7 5.3-2.7 2.5-4.2 4.8-4.6 7.2-.3 1.9-.1 4.6.3 5.9l3.94.367c16.266-6.882 27.71 10.883 39.56 11.733 1.3-.1 3 .7 3.9 1.7 1 1.1 1.9 4.5 2.3 9.1 1.033 6.35-1.947 9.879-6.7 14-3.483 3.741-17.327 5.835-14.417 9.751 1.388 1.867 2.074 5.628 9.717 10.849 3.1.5 22.946-4.24 32.146-6.04 60.359 22.345 85.042-56.728 78.297-88.395-.8-3.7-12.544-9.073-11.944-15.673.4-5.5-3.099-10.292-2.599-12.092.6-1.7-1.306-6.372-.706-6.372.6 0 5.406 4.172 7.306 5.372 2.4 1.6 3.4 3.1 3.4 4.8.1 1.4-18.185 9.687 1.3 3.8 45.846-13.851 10.485-28.856 3.6-45.7 1.7-2.9 4.3-5.2 7.2-6.7 2.5-1.3 6.1-2.4 8-2.4 1.9 0 5 .9 6.7 2 1.8 1.1 4.6 3.9 6.1 6.2 1.6 2.4 3.4 5.9 4.1 7.8.6 1.9 1.1 5.4 1.1 7.7 0 2.4 1.716 5.367.816 9.067-.8 3.8-2.4 9.3-3.5 12.3-1.2 3-6.016 10.133-7.816 13.433-17.19 13.228-2.78 32.502 1.5 46.5.526 1.721-1.163-2.24-4.163-3.14-2.988-8.878-5.968-7.504-10.577-10.68l-7.76 2.12c.297 7.209 2.128 6.999 12.175 21.97 1.316-1.013 5.045-2.95 11.525.63 2.9 1.7 7.5 5.3 10.3 8.1 2.7 2.7 5.7 5 6.5 5 .8 0 2.6 1.1 4 2.5s2.9 2.2 3.3 1.8c.5-.5-.7-3.1-2.5-5.8-1.9-2.8-5.3-6.2-7.6-7.8-2.3-1.5-4.5-3.7-4.8-5-.3-1.3 0-2.8 1-3.7l5.6-10.5c.598-.8 1.27-2.826 1.799-2.226 1.355 1.537 1.145 1.726 1.701 2.926.2 1.3 1.1 6.4 2 11.3.8 4.9 4.7 7.743 5.5 8.943.8 1.3-.5 4.557.1 4.557s3.23-3.593 6.63-7.093c3.7-3.7 5.901-9.098 6.901-11.798 1.2-3 1.112-6.044.712-8.544-.4-2.5-.414-2.821-2.843-6.365-2.4-2.6-4.4-5.3-4.5-6 0-.6.6-1.5 1.2-1.8.7-.4.928-.732 3.475-1.74 5.144-.12 10.281 6.468 12.5 8.74 1.1-1 .025-8-1.175-10.6-.8-1.8-3.5-5.5-6-8.2-2.5-2.7-7-6.5-10-8.4-3-1.9-5.6-3.5-5.7-3.6-.1-.1 1.4-3.9 3.4-8.6 2-4.7 5-10.5 6.8-13 1.8-2.5 4.4-6.8 5.8-9.5 1.3-2.8 3-7.7 3.7-11 1-4.8 1-7.6 0-14-.8-4.8-1-11.4-.7-16.5.4-4.7 2.2-14.8 4.2-22.5 1.9-7.7 9.992-22.533 9.992-24.633-12.68-3.257-28.034-9.367-40.992-14.067-6.1-2.2-13.5-4.7-16.5-5.4-4.1-1-13.1-1.3-35-1.3-20.5.1-31.2.5-35 1.4z" class="s0" style="fill:#010a4d;fill-opacity:1;stroke:none;stroke-opacity:.596078"/><path id="Path 16" d="m256.033 301.736-65.686 60.58c-.4 1.9 2.053 3.884 3.553 5.684 1.2 1.4 3.2 4.1 4.5 6 1.3 1.9 3 5.4 3.7 7.7 1.1 3.2 1.1 4.8.3 6.5-.6 1.3-4.1 4.1-7.9 6.3-3.7 2.2-9.5 6.3-12.9 9.1-3.3 2.7-7.5 6.8-9.2 9-1.8 2.1-4.1 6.6-5.2 9.9-1.1 3.3-2.7 10.3-3.6 15.5-.8 5.2-2.2 16-3.1 24-1 8-2.3 17.2-3 20.5-.7 3.3-3.2 12.5-5.5 20.5s-5.5 19.5-7 25.5-3.5 15-4.4 20c-.9 5-1.9 9.8-2.1 10.8-.5 1.6 5 1.7 105.3 1.6l201.29-.4.024-192.519c.906-4.207-84.56-14.8-84.414-15.181.533-.867.367-1.033-.5-.5-8.525-3.115-17.41-5.034-26.9-4.933-9.377-.134-16.69 2.942-23.181 7.297z" class="s2" style="fill:url(#linearGradient37);fill-opacity:1"/><path id="Path 6" d="M129.712 162.705c-3.578.7-6.952 1.8-7.463 2.3-.614.6-1.738 1-2.659 1-.92 0-3.067 1.2-4.702 2.8-2.659 2.3-3.374 4-4.703 12.2-.92 5.199-2.25 13.598-2.965 18.498-.613 5-1.227 13.299-1.227 18.498 0 5.2.307 10.5.614 11.8.408 1.2 1.942 3 3.476 3.999 1.84 1.1 2.862 2.6 2.862 4.2 0 6.859-21.971 32.616-19.963 40.144.511 1.9 3.524 3.55 5.756 5.23 2.874 1.709 11.966 8.271 14.514 8.321.196-3.713 4.111-2.768 8.79-4.015 5.338 1.422 42.064 30.956 46.178 32.172 23.181 6.855 62.469-91.814 45.766-69.575 1.778-30.375 4.124-78.9-49.718-83.272-8.373-4.098-5.436-3.158-7.668-2.3-.41-.4-3.74-1.144-7.025-1.895-7.471-1.708-12.45-1.716-19.863-.105z" class="s2" style="fill:url(#radialGradient36);fill-opacity:1;stroke:none;stroke-width:1.01108;stroke-opacity:.596078"/><path id="Path 0-0-8-2" d="M199.516 189.52c-28.041-21.643-4.732 5.455-3.62 7.336 8.548 28.754 10.798 43.575 10.314-1.57 3.681-4.932 5.524-13.397 6.914-17.631z" class="s0" style="fill:#010a4d;fill-opacity:1;stroke:none;stroke-width:1.47669;stroke-opacity:.596078"/><path id="Path 4" d="M133.922 217.396c-2.212 1.709-3.068 1.953-5.507 7.691 0 4.517.614 8.057 1.35 8.057.737 0 1.474-1.1 1.842-2.442.368-1.465 3.2-3.35 4.363-4.252 1.778-1.38 1.125-1.288.425 6.45 3.447 4.284 2.379 5.858 3.56 4.516 1.803-2.69 3.05-2.156 4.755-5.21.614-1.22 1.628-2.48 1.383-4.555-.369-2.198 0-4.15 1.104-5.005.86-.732 2.947-1.831 4.665-2.32 2.824-.976 2.946-.854 2.087 1.954-.737 2.319-.614 2.807.982 1.953.982-.488 2.087-.855 2.455-.855.368 0 .614-1.098.614-2.441 0-1.343-.86-3.296-1.841-4.272-1.35-1.343-4.542-1.831-11.908-1.71-5.647 0-8.733 1.83-10.33 2.441z" class="s0" style="stroke-width:1.22411"/><path id="Path 5" d="M145 200.5c-9.67 1.877-9.646 1.945-18.353 6.044-4.485 5.537-13.082 11.73-12.33 11.797 4.3.382 10.225-1.894 14.293-3.339 5.448-1.935 5.024-3.722 13.09-5.902 15.361-1.227 9.437 2.196 23.662 1.484 4.016-4.828 9.367-6.326 7.727-6.813-5.52-1.64-20.964-3.122-28.089-3.271Z" class="s0"/><path id="Path 8" d="M106.1 280c-1.4.5-2.4 1.4-2.3 2 .1.6 1.8.8 4 .6 2-.3 5.2-.7 7-1 1.7-.3 3-1 2.7-1.6-.3-.6-2.4-1-4.7-.9-2.4 0-5.4.4-6.7.9z" class="s0"/><path id="Path 15" d="M107.397 304.013c-1.9 1.9 1.703 3.087 6.903 8.187 4.4 4.3 6.95 10.449 7.55 14.149-.773 1.026 11.573 5.002 11.15 15.351-.885 4.497-.642 6.016 1.171 9.491.662 1.27 1.6 2.076 4.175 2.017 13.11-.302 32.672-36.772 7.714-43.578l-10.49-7.15c-.6-.3-3.416-.341-3.416.259 0 .5-.054 4.261-1.154 4.261-1.1 0-3.738-4.486-6.438-5.086-2.6-.6-6.441-1.138-8.341-1.538-2.7-.7-7.324 2.037-8.824 3.637z" class="s2" style="fill:url(#linearGradient34);fill-opacity:1"/><path id="Path 9" d="M261.869 194.969c-2.3 1.2-5.773 4.213-7.373 6.613-1.7 2.4-3.386 5.96-3.686 7.66-.6 2.7.59 3.658 4.39 6.558 15.535 7.551 28.02 15.409 6.767 26.967-3.848 2.117-7.011 3.115-12.067 1.233 0-1.7-1-3.2-3.4-4.8-1.9-1.2-8.025-6.957-8.525-6.957-.6 0 2.525 6.257 1.925 7.957-.065.234-2.773 16.22 10.015 23.154 16.617 18.56-29.407 66.938-60.215 91.234-2.225-.908-5.295-.291-5.595.609-.3 1.2 2.695 6.103 4.595 7.703l2.8 2.4c.56-16.381 61.172-3.094 54.157-38.169-.07-1.762-1.587-7.71-.539-6.483 2.503 2.928 6.02 4.918 6.082 8.352.808 5.654-.374 22.858 1.256 18.11 5.224-15.222 11.229 26.176 11.544 40.09 0 1.6-.9 4.5-1.9 6.5-1 2.1-2.82 2.667-3.82 3.667l-6.884 3.954c3.382 1.305 5.574 3.149 7.304 4.879 15.359-15.75 28.687-15.18 47.15-8.442-2.326-7.658-6.18-11.802-8.95-18.558 9.09-28.03 64.973-25.594 68.753-25.519 1.443.029-7.6-3.41-21.153-7.481-11-3.2-21.6-6.7-23.5-7.7-1.9-.9-5.3-3.2-7.5-4.9-2.2-1.8-5-4.9-6.3-6.9-1.5-2.6-1.9-4.2-1.3-5.5.6-1.2.3-2.4-1-4.2-1.2-1.5-1.93-6.283-2.83-11.683-.8-4.9-2.37-9.817-2.57-11.117-.3-1.2-1.2-3.481-2-3.481s-1.067 2.108-1.5 2.781c-3.614 5.615-3.53 4.996-5.6 10.5-1 .9-1.3 2.4-1 3.7.3 1.3 2.5 3.5 4.8 5 2.3 1.6 5.7 5 7.6 7.8 1.8 2.7 3 5.3 2.5 5.8-.4.4-1.9-.4-3.3-1.8s-3.2-2.5-4-2.5c-.8 0-3.8-2.3-6.5-5-2.8-2.8-7.4-6.4-10.3-8.1-3.8-2.1-5.238-4.17-6.338-3.47-1 .7-2.662 2.17-4.462 1.27-1.4-.6-3-2.7-3.7-4.5-4.222-8.689-5.205-9.175-9-12.5l-.2-3.4c2.66 3.572 6.539-2.68 8.764 3.211C267.462 286.276 274 298.5 275.7 299c3 .9 4.076 1.576 4.076-.224 4.618-15.3-4.328-25.787-9.575-35.81-.3-3.2 6.049-6.424 8.749-11.224 1.8-3.3 7.22-7.896 8.42-10.896 1.1-3 3.907-7.534 4.707-11.334.9-3.7-4.077-10.412-4.077-12.812 0-2.3-.5-5.8-1.1-7.7-.7-1.9-2.5-5.4-4.1-7.8-1.5-2.3-4.3-5.1-6.1-6.2-1.7-1.1-4.8-2-6.7-2-1.9 0-5.831.669-8.131 1.969z" class="s1" style="fill:#d0ddf1;fill-opacity:1"/><path id="Path 16-4" d="M202.027 388.27c-.6 1.3-4.1 4.1-7.9 6.3-3.7 2.2-9.5 6.3-12.9 9.1-3.3 2.7-7.5 6.8-9.2 9-1.8 2.1-4.1 6.6-5.2 9.9-1.1 3.3-2.7 10.3-3.6 15.5-.8 5.2-2.2 16-3.1 24-1 8-2.3 17.2-3 20.5-.7 3.3-3.2 12.5-5.5 20.5s-5.5 19.5-7 25.5-3.5 15-4.4 20c-.9 5-1.9 9.8-2.1 10.8-.5 1.6 5 1.7 105.3 1.6l201.29-.4.024-192.518c.906-4.207-84.56-14.8-84.414-15.181.534-.867.367-1.033-.5-.5-8.525-3.115-17.409-5.034-26.899-4.933-9.377-.134-16.69 2.942-23.182 7.297-33.52 30.274-68.7 47.261-107.719 33.536z" class="s2" style="fill:url(#linearGradient39);fill-opacity:1;stroke:none;stroke-opacity:.596078"/><path id="Path 0-0" d="M111.243 172.338c.8 4.9-2.89 6.19-2.09 7.39.8 1.3-.5 4.558.1 4.558s3.228-3.593 6.628-7.093c3.7-3.7 5.903-9.098 6.903-11.798z" class="s0" style="display:inline;fill:#010a4d;fill-opacity:1;stroke:none;stroke-opacity:.596078"/><path id="Path 0-0-8" d="M120.025 165.841c.8 4.9-2.89 6.191-2.09 7.391.8 1.3-.5 4.557.1 4.557s3.23-3.593 6.63-7.093c3.7-3.7 5.901-9.098 6.901-11.798z" class="s0" style="display:inline;fill:#010a4d;fill-opacity:1;stroke:none;stroke-opacity:.596078"/><path id="Path 0-0-8-2-0" d="M161.674 157.74c1.113 7.684 13.209 21.153 14.321 23.035 7.224 2.717.417 22.768 7.755 11.038.443-.708 4.066-8.563 2.387-14.679 3.681-4.93 5.523-13.396 6.914-17.63z" class="s0" style="display:inline;fill:#010a4d;fill-opacity:1;stroke:none;stroke-width:1.47669;stroke-opacity:.596078"/><path id="Path 0-2" d="M213.637 114.48c-20.427 2.453-22.054 3.298-44.4 11.3.2-.5-1.5-.3-3.9.3-2.3.6-7.4 2.6-11.2 4.6-3.8 1.9-9.7 5.5-13 7.9-3.3 2.4-8.1 6.2-10.6 8.6-2.5 2.4-7.4 7.6-10.8 11.6-3.3 3.9-8.817 13.904-8.717 14.404.2.6 7.294-3.589 10.435-5.532 2.7-2.3 7.698-4.269 9.598-4.869 1.9-.5 5.424.564 9.024.564 3.6 0 9.168.9 13.268 1.9 4.1 1 11.376 4.764 14.976 6.564 3.6 1.8 8.311 4.585 11.211 6.385 2.8 1.9 11.93 9.572 13.13 9.472l46.875 52.512c.6-1.7-1.305-6.372-.705-6.372s5.405 4.172 7.305 5.372c2.4 1.6 3.4 3.1 3.4 4.8.1 1.4-18.185 9.687 1.3 3.8 45.846-13.852 10.486-28.856 3.6-45.7 1.7-2.9 4.3-5.2 7.2-6.7 2.5-1.3 6.1-2.4 8-2.4 1.9 0 5 .9 6.7 2 1.8 1.1 4.6 3.9 6.1 6.2 1.6 2.4 3.4 5.9 4.1 7.8.6 1.9 1.1 5.4 1.1 7.7 0 2.4 1.716 5.367.816 9.067-.8 3.8-2.4 9.3-3.5 12.3-1.2 3-6.016 10.133-7.816 13.433-17.19 13.228-2.78 32.502 1.5 46.5.527 1.721-1.162-2.24-4.162-3.14-2.989-8.879-5.969-7.504-10.577-10.68l-7.76 2.12c.297 7.209 2.128 6.999 12.175 21.97 1.316-1.013 5.045-2.951 11.524.63 2.9 1.7 7.5 5.3 10.3 8.1 2.7 2.7 5.7 5 6.5 5 .8 0 2.6 1.1 4 2.5s2.9 2.2 3.3 1.8c.5-.5-.7-3.1-2.5-5.8-1.9-2.8-5.3-6.2-7.6-7.8-2.3-1.5-4.5-3.7-4.8-5-.3-1.3 0-2.8 1-3.7l5.6-10.5c.598-.8 1.27-2.826 1.8-2.226 1.355 1.537 1.144 1.726 1.7 2.926.2 1.3 1.1 6.4 2 11.3.8 4.9 4.701 7.743 5.501 8.943.8 1.3-.5 4.557.1 4.557s3.229-3.593 6.629-7.093c3.7-3.7 5.902-9.098 6.902-11.798 1.2-3 1.112-6.044.712-8.544-.4-2.5-.414-2.821-2.844-6.365-2.4-2.6-4.4-5.3-4.5-6 0-.6.6-1.5 1.2-1.8.7-.4.929-.732 3.475-1.74 5.144-.12 10.282 6.467 12.501 8.739 1.1-1 .024-8-1.176-10.6-.8-1.8-3.5-5.5-6-8.2-2.5-2.7-7-6.5-10-8.4-3-1.9-5.6-3.5-5.7-3.6-.1-.1 1.4-3.9 3.4-8.6 2-4.7 5-10.5 6.8-13 1.8-2.5 4.4-6.8 5.8-9.5 1.3-2.8 3-7.7 3.7-11 1-4.8 1-7.6 0-14-.8-4.8-1-11.4-.7-16.5.4-4.7 2.2-14.8 4.2-22.5 1.9-7.7 9.992-22.532 9.992-24.632-12.679-3.257-28.034-9.368-40.992-14.067-6.1-2.2-13.5-4.7-16.5-5.4-4.1-1-13.1-1.3-35-1.3-20.5.1-31.2.5-35 1.4z" class="s0" style="display:inline;fill:url(#linearGradient41);fill-opacity:1;stroke:none;stroke-opacity:.596078"/></g></svg>