<?xml version="1.0" encoding="UTF-8"?>
<svg version="1.0" viewBox="0 0 182 182" xmlns="http://www.w3.org/2000/svg" xmlnsCc="http://web.resource.org/cc/" xmlnsDc="http://purl.org/dc/elements/1.1/" xmlnsRdf="http://www.w3.org/1999/02/22-rdf-syntax-ns#" xmlns:xlink="http://www.w3.org/1999/xlink">
<metadata>
<rdfRDF>
<ccWork rdfAbout="">
<dcFormat>image/svg+xml</dcFormat>
<dcType rdfResource="http://purl.org/dc/dcmitype/StillImage"/>
</ccWork>
</rdfRDF>
</metadata>
<g id="a" transform="matrix(-1 0 0 1 182 0)">
<use transform="matrix(1,0,0,-1,0,182)" width="182" height="182" xlink:href="#b"/>
<g id="b" transform="translate(4.758e-6 1.0729e-6)">
<rect x=".48338" y="126.48" width="13.033" height="13.033"  />
<rect x=".48338" y="140.48" width="13.033" height="13.033"  />
<rect x=".48338" y="168.48" width="13.033" height="13.033" fill="#8eaa90"  />
<rect x="14.483" y="112.48" width="13.033" height="13.033"  />
<rect x="14.483" y="126.48" width="13.033" height="13.033"  />
<rect x="28.483" y="98.483" width="13.033" height="13.033"  />
<rect x="28.483" y="126.48" width="13.033" height="13.033"  />
<rect x="28.483" y="168.48" width="13.033" height="13.033"  />
<rect x="42.483" y="98.483" width="13.033" height="13.033"  />
<rect x="42.483" y="112.48" width="13.033" height="13.033"  />
<rect x="42.483" y="140.48" width="13.033" height="13.033"  />
<rect x="42.483" y="154.48" width="13.033" height="13.033"  />
<rect x="42.483" y="168.48" width="13.033" height="13.033"  />
<rect x="56.483" y="98.483" width="13.033" height="13.033"  />
<rect x="56.483" y="126.48" width="13.033" height="13.033"  />
<rect x="56.483" y="154.48" width="13.033" height="13.033"  />
<rect x="70.483" y="112.48" width="13.033" height="13.033"  />
<rect x="70.483" y="126.48" width="13.033" height="13.033"  />
<rect x="70.483" y="140.48" width="13.033" height="13.033"  />
<rect x=".48338" y="84.483" width="13.033" height="13.033" fill="#8eaa90"  />
<rect x=".48338" y="98.483" width="13.033" height="13.033" fill="#8eaa90"  />
<rect x=".48338" y="112.48" width="13.033" height="13.033" fill="#8eaa90"  />
<rect x=".48338" y="154.48" width="13.033" height="13.033" fill="#8eaa90"  />
<rect x=".48338" y="168.48" width="13.033" height="13.033" fill="#8eaa90"  />
<rect x="14.483" y="84.483" width="13.033" height="13.033" fill="#8eaa90"  />
<rect x="14.483" y="98.483" width="13.033" height="13.033" fill="#8eaa90"  />
<rect x="14.483" y="140.48" width="13.033" height="13.033" fill="#8eaa90"  />
<rect x="14.483" y="154.48" width="13.033" height="13.033" fill="#8eaa90"  />
<rect x="14.483" y="168.48" width="13.033" height="13.033" fill="#8eaa90"  />
<rect x="28.483" y="84.483" width="13.033" height="13.033" fill="#8eaa90"  />
<rect x="28.483" y="112.48" width="13.033" height="13.033" fill="#8eaa90"  />
<rect x="28.483" y="140.48" width="13.033" height="13.033" fill="#8eaa90"  />
<rect x="28.483" y="154.48" width="13.033" height="13.033" fill="#8eaa90"  />
<rect x="42.483" y="84.483" width="13.033" height="13.033" fill="#8eaa90"  />
<rect x="42.483" y="126.48" width="13.033" height="13.033" fill="#8eaa90"  />
<rect x="56.483" y="84.483" width="13.033" height="13.033" fill="#8eaa90"  />
<rect x="56.483" y="112.48" width="13.033" height="13.033" fill="#8eaa90"  />
<rect x="56.483" y="140.48" width="13.033" height="13.033" fill="#8eaa90"  />
<rect x="56.483" y="168.48" width="13.033" height="13.033" fill="#8eaa90"  />
<rect x="70.483" y="84.483" width="13.033" height="13.033" fill="#8eaa90"  />
<rect x="70.483" y="98.483" width="13.033" height="13.033" fill="#8eaa90"  />
<rect x="70.483" y="154.48" width="13.033" height="13.033" fill="#8eaa90"  />
<rect x="70.483" y="168.48" width="13.033" height="13.033" fill="#8eaa90"  />
<rect x="84.483" y="84.483" width="13.033" height="13.033" fill="#8eaa90"  />
<rect x="84.483" y="98.483" width="13.033" height="13.033" fill="#8eaa90"  />
<rect x="84.483" y="112.48" width="13.033" height="13.033" fill="#8eaa90"  />
<rect x="84.483" y="126.48" width="13.033" height="13.033" fill="#8eaa90"  />
<rect x="84.483" y="140.48" width="13.033" height="13.033" fill="#8eaa90"  />
<rect x="84.483" y="154.48" width="13.033" height="13.033" fill="#8eaa90"  />
<rect x="84.483" y="168.48" width="13.033" height="13.033" fill="#8eaa90"  />
</g>
</g>
<use transform="matrix(-1 0 0 1 182 0)" width="182" height="182" xlink:href="#a"/>
</svg>
