<?xml version="1.0" encoding="UTF-8"?>
<svg width="980" height="1235" version="1.2" viewBox="0 0 445 561" xmlns="http://www.w3.org/2000/svg" xmlns:cc="http://creativecommons.org/ns#" xmlns:dc="http://purl.org/dc/elements/1.1/" xmlns:rdf="http://www.w3.org/1999/02/22-rdf-syntax-ns#" xmlns:xlink="http://www.w3.org/1999/xlink">
<defs>
<linearGradient id="e" x1="106.88" x2="158.09" y1="326.74" y2="326.74" gradientUnits="userSpaceOnUse">
<stop stop-color="#fcffff" offset="0"/>
<stop stop-color="#e0e9f5" offset="1"/>
</linearGradient>
<radialGradient id="a" cx="128.1" cy="265.87" r="62.577" gradientTransform="matrix(1 0 0 1.2679 0 -64.525)" gradientUnits="userSpaceOnUse">
<stop stop-color="#fcffff" offset="0"/>
<stop stop-color="#e0e9f5" offset=".8775"/>
</radialGradient>
<linearGradient id="d" x1="138.47" x2="445.12" y1="431.33" y2="431.33" gradientUnits="userSpaceOnUse">
<stop stop-color="#fcffff" offset="0"/>
<stop stop-color="#d0ddf1" offset="1"/>
</linearGradient>
<linearGradient id="c" x1="137.6" x2="455.6" y1="454.22" y2="454.22" gradientUnits="userSpaceOnUse">
<stop stop-color="#fcffff" offset="0"/>
<stop stop-color="#abc6ea" offset=".6725"/>
</linearGradient>
<linearGradient id="b" x1="111.02" x2="341.13" y1="219.73" y2="219.73" gradientUnits="userSpaceOnUse">
<stop stop-color="#011bb6" offset="0"/>
<stop stop-color="#010a4d" offset="1"/>
</linearGradient>
</defs>--dark: #1e1e1e;
	--greygreen: #536869;
	--highlightgreen: #8eaa90;
	--green: #738c7f;
	--grey:#434243;
<title>meVectoriced</title>
<style>.s0 { fill: #1e1e1e } 
		.s1 { opacity: 1;fill: #536869} 
		.s2 { opacity: 1;fill: #434343}</style>
<metadata>
<rdf:RDF>
<cc:Work rdf:about="">
<dc:title>meVectoriced</dc:title>
</cc:Work>
</rdf:RDF>
</metadata>
<g transform="translate(593.32 -87.827)" fill="#1832fc">
<path class="s0" d="m-397.56 201.64c-20.427 2.4534-22.054 3.2986-44.4 11.3 0.2-0.5-1.5-0.3-3.9 0.3-2.3 0.6-7.4 2.6-11.2 4.6-3.8 1.9-9.7 5.5-13 7.9s-8.1 6.2-10.6 8.6-7.4 7.6-10.8 11.6c-3.3 3.9-8.8171 13.904-8.7171 14.404 0.2 0.6 7.2934-3.5889 10.435-5.5326 2.7-2.3 7.6976-4.2683 9.5976-4.8683 1.9-0.5 5.4241 0.56379 9.0241 0.56379s9.1681 0.9 13.268 1.9 11.376 4.7638 14.976 6.5638 8.311 4.5856 11.211 6.3856c2.8 1.9 11.93 9.5714 13.13 9.4714 23.164 18.68 40.266 82.026-29.824 124.31-0.4 0-1.3-1.1-2-2.5-0.8-1.6667-2.0333-2.5-3.7-2.5s-2.6667-0.66667-3-2c-0.3-1.1-1.7-2.9-3.3-3.9-1.5-1-6.8-3.5-11.7-5.5-5.9-2.3-10.2-4.8-12.5-7.1-1.9-1.9-3.8168-1.3257-4.8168-1.3257-0.9 0-3.4832-1.4743-5.1832-0.67429s-4.8 3.2-7 5.3c-2.7 2.5-4.2 4.8-4.6 7.2-0.3 1.9-0.1 4.6 0.3 5.9l3.9406 0.3673c16.266-6.882 27.709 10.883 39.559 11.733 1.3-0.1 3 0.7 3.9 1.7 1 1.1 1.9 4.5 2.3 9.1 1.0334 6.3501-1.9467 9.879-6.7 14-3.4829 3.7414-17.327 5.835-14.417 9.751 1.3876 1.867 2.0739 5.6282 9.7169 10.849 3.1 0.5 22.946-4.2402 32.146-6.0402 60.359 22.346 85.042-56.728 78.298-88.395-0.8-3.7-12.544-9.0725-11.944-15.673 0.4-5.5-3.099-10.292-2.599-12.092 0.6-1.7-1.3056-6.3715-0.7056-6.3715s5.4056 4.1715 7.3056 5.3715c2.4 1.6 3.4 3.1 3.4 4.8 0.1 1.4-18.185 9.687 1.3 3.8 45.846-13.851 10.485-28.856 3.6-45.7 1.7-2.9 4.3-5.2 7.2-6.7 2.5-1.3 6.1-2.4 8-2.4s5 0.9 6.7 2c1.8 1.1 4.6 3.9 6.1 6.2 1.6 2.4 3.4 5.9 4.1 7.8 0.6 1.9 1.1 5.4 1.1 7.7 0 2.4 1.7159 5.3673 0.81588 9.0673-0.8 3.8-2.4 9.3-3.5 12.3-1.2 3-6.0159 10.133-7.8159 13.433-17.19 13.228-2.7805 32.502 1.5 46.5 0.52636 1.7213-1.1626-2.2402-4.1626-3.1402-2.9889-8.8783-5.9688-7.5033-10.577-10.68l-7.7602 2.1203c0.29708 7.2087 2.1285 6.999 12.175 21.97 1.3162-1.0131 5.0452-2.9511 11.525 0.62968 2.9 1.7 7.5 5.3 10.3 8.1 2.7 2.7 5.7 5 6.5 5s2.6 1.1 4 2.5 2.9 2.2 3.3 1.8c0.5-0.5-0.7-3.1-2.5-5.8-1.9-2.8-5.3-6.2-7.6-7.8-2.3-1.5-4.5-3.7-4.8-5s0-2.8 1-3.7l5.6-10.5c0.5979-0.8 1.27-2.8262 1.799-2.226 1.3552 1.5374 1.1448 1.726 1.701 2.926 0.2 1.3 1.1 6.4 2 11.3 0.8 4.9 4.7006 7.7433 5.5006 8.9433 0.8 1.3-0.50064 4.5567 0.0994 4.5567 0.6 0 3.2291-3.5929 6.6291-7.0929 3.7-3.7 5.9022-9.0978 6.9022-11.798 1.2-3 1.1121-6.044 0.71207-8.544s-0.41422-2.8214-2.8433-6.3653c-2.4-2.6-4.4-5.3-4.5-6 0-0.6 0.6-1.5 1.2-1.8 0.7-0.4 0.92845-0.7319 3.4746-1.7396 5.144-0.11983 10.281 6.4672 12.501 8.7388 1.1-1 0.0241-7.9991-1.1759-10.599-0.8-1.8-3.5-5.5-6-8.2s-7-6.5-10-8.4-5.6-3.5-5.7-3.6 1.4-3.9 3.4-8.6 5-10.5 6.8-13 4.4-6.8 5.8-9.5c1.3-2.8 3-7.7 3.7-11 1-4.8 1-7.6 0-14-0.8-4.8-1-11.4-0.7-16.5 0.4-4.7 2.2-14.8 4.2-22.5 1.9-7.7 9.9915-22.533 9.9915-24.633-12.679-3.2569-28.034-9.3673-40.992-14.067-6.1-2.2-13.5-4.7-16.5-5.4-4.1-1-13.1-1.3-35-1.3-20.5 0.1-31.2 0.5-35 1.4z"/>
<path class="s2" d="m-355.53 388.87-65.687 60.581c-0.4 1.9 2.0535 3.8832 3.5535 5.6832 1.2 1.4 3.2 4.1 4.5 6s3 5.4 3.7 7.7c1.1 3.2 1.1 4.8 0.3 6.5-0.6 1.3-4.1 4.1-7.9 6.3-3.7 2.2-9.5 6.3-12.9 9.1-3.3 2.7-7.5 6.8-9.2 9-1.8 2.1-4.1 6.6-5.2 9.9s-2.7 10.3-3.6 15.5c-0.8 5.2-2.2 16-3.1 24-1 8-2.3 17.2-3 20.5s-3.2 12.5-5.5 20.5-5.5 19.5-7 25.5-3.5 15-4.4 20-1.9 9.8-2.1 10.8c-0.5 1.6 5 1.7 105.3 1.6l201.29-0.4 0.0244-192.52c0.90616-4.2072-84.56-14.8-84.414-15.181 0.53333-0.86667 0.36667-1.0333-0.5-0.5-8.5252-3.1152-17.409-5.0337-26.899-4.9326-9.3773-0.13445-16.691 2.9413-23.182 7.2969z"/>
<path class="s2" d="m-481.85 249.84c-3.5783 0.69995-6.952 1.7999-7.4632 2.2998-0.61341 0.59995-1.738 0.99992-2.6581 0.99992-0.92013 0-3.0671 1.1999-4.7028 2.7998-2.6581 2.2998-3.3738 3.9997-4.7028 12.199-0.92013 5.1996-2.2492 13.599-2.9648 18.499-0.61342 4.9996-1.2268 13.299-1.2268 18.499 0 5.1996 0.30671 10.499 0.61342 11.799 0.40894 1.1999 1.9425 2.9998 3.476 3.9997 1.8402 1.0999 2.8626 2.5998 2.8626 4.1997 0 6.859-21.971 32.616-19.963 40.144 0.51118 1.8999 3.5246 3.5502 5.7566 5.2293 2.8734 1.7096 11.965 8.2719 14.513 8.322 0.19643-3.7139 4.1113-2.7688 8.7904-4.0154 5.3379 1.4219 42.064 30.955 46.178 32.172 23.181 6.8545 62.468-91.815 45.766-69.576 1.7773-30.375 4.1236-78.899-49.719-83.272-8.3729-4.0982-5.436-3.158-7.6677-2.2998-0.40894-0.39997-3.7392-1.1446-7.0245-1.8956-7.4715-1.7082-12.45-1.7155-19.864-0.1042z"/>
<path class="s0" d="m-412.05 276.66c-28.042-21.642-4.7328 5.455-3.6204 7.3369 8.5479 28.754 10.798 43.575 10.314-1.5709 3.681-4.9313 5.5233-13.396 6.9138-17.631z"/>
<path class="s0" d="m-477.64 304.53c-2.212 1.7084-3.0674 1.9529-5.5063 7.691 0 4.5164 0.61379 8.0563 1.3503 8.0563 0.73654 0 1.4731-1.0986 1.8414-2.4413 0.36827-1.4648 3.199-3.3495 4.3628-4.2526 1.7784-1.3801 1.1248-1.2873 0.42479 6.4498 3.447 4.2845 2.3789 5.8586 3.56 4.5164 1.8029-2.6891 3.0496-2.1558 4.7556-5.2093 0.61378-1.2206 1.6278-2.4808 1.3823-4.5558-0.36827-2.1972 0-4.1502 1.1048-5.0047 0.8593-0.73239 2.9462-1.831 4.6648-2.3192 2.8234-0.97652 2.9462-0.85446 2.0869 1.953-0.73655 2.3192-0.61379 2.8075 0.98206 1.953 0.98206-0.48826 2.0869-0.85445 2.4552-0.85445s0.61379-1.0986 0.61379-2.4413-0.8593-3.2958-1.8414-4.2723c-1.3503-1.3427-4.542-1.831-11.907-1.7089-5.6468 0-8.7336 1.8301-10.329 2.4404z"/>
<path class="s0" d="m-466.56 287.64c-9.6698 1.8768-9.6456 1.9446-18.353 6.044-4.485 5.5373-13.083 11.73-12.331 11.797 4.2998 0.38215 10.225-1.8933 14.293-3.3384 5.448-1.9354 5.0246-3.7224 13.09-5.9023 15.361-1.2271 9.4366 2.1956 23.662 1.4841 4.0153-4.8278 9.3671-6.3259 7.7264-6.8133-5.5204-1.6401-20.964-3.1223-28.089-3.2708z"/>
<path class="s0" d="m-505.46 367.14c-1.4 0.5-2.4 1.4-2.3 2s1.8 0.8 4 0.6c2-0.3 5.2-0.7 7-1 1.7-0.3 3-1 2.7-1.6s-2.4-1-4.7-0.9c-2.4 0-5.4 0.4-6.7 0.9z"/>
<path class="s2" d="m-504.17 391.15c-1.9 1.9 1.703 3.0871 6.903 8.1871 4.4 4.3 6.9495 10.449 7.5495 14.149-0.77282 1.0268 11.574 5.0021 11.15 15.351-0.88476 4.4966-0.64183 6.0155 1.1713 9.4911 0.66222 1.2694 1.5996 2.0761 4.1743 2.0168 13.111-0.30193 32.673-36.772 7.7149-43.578l-10.49-7.1495c-0.6-0.3-3.4159-0.34158-3.4159 0.25842 0 0.5-0.0544 4.2614-1.1544 4.2614-1.1 0-3.7376-4.4862-6.4376-5.0862-2.6-0.6-6.4416-1.1376-8.3416-1.5376-2.7-0.7-7.3238 2.0367-8.8238 3.6367z"/>
<path class="s1" d="m-349.7 282.11c-2.3 1.2-5.7725 4.2137-7.3725 6.6137-1.7 2.4-3.3863 5.9588-3.6863 7.6588-0.6 2.7 0.59004 3.6588 4.39 6.5588 15.535 7.5514 28.019 15.409 6.7673 26.967-3.8484 2.1168-7.0115 3.1146-12.067 1.2327 0-1.7-1-3.2-3.4-4.8-1.9-1.2-8.0254-6.9573-8.5254-6.9573-0.6 0 2.5254 6.2573 1.9254 7.9573-0.0649 0.23362-2.7727 16.221 10.015 23.154 16.617 18.56-29.407 66.939-60.215 91.234-2.2248-0.90794-5.2951-0.29111-5.5951 0.60889-0.3 1.2 2.6951 6.103 4.5951 7.703l2.8 2.4c0.56081-16.381 61.172-3.094 54.157-38.169-0.0698-1.7627-1.5872-7.7102-0.53893-6.4836 2.5025 2.9282 6.0188 4.9185 6.0816 8.3523 0.80831 5.6544-0.37407 22.858 1.2559 18.109 5.2241-15.221 11.229 26.176 11.544 40.091 0 1.6-0.9 4.5-1.9 6.5-1 2.1-2.8208 2.6673-3.8208 3.6673l-6.8832 3.9535c3.3822 1.3048 5.5739 3.1491 7.304 4.8792 15.359-15.75 28.687-15.179 47.15-8.4418-2.3259-7.658-6.18-11.802-8.9498-18.558 9.0906-28.03 64.973-25.594 68.753-25.519 1.4433 0.0285-7.6003-3.4096-21.153-7.481-11-3.2-21.6-6.7-23.5-7.7-1.9-0.9-5.3-3.2-7.5-4.9-2.2-1.8-5-4.9-6.3-6.9-1.5-2.6-1.9-4.2-1.3-5.5 0.6-1.2 0.3-2.4-1-4.2-1.2-1.5-1.9291-6.283-2.8291-11.683-0.8-4.9-2.3709-9.817-2.5709-11.117-0.3-1.2-1.2-3.4812-2-3.4812s-1.067 2.1085-1.5 2.7812c-3.6142 5.6153-3.5294 4.9958-5.6 10.5-1 0.9-1.3 2.4-1 3.7s2.5 3.5 4.8 5c2.3 1.6 5.7 5 7.6 7.8 1.8 2.7 3 5.3 2.5 5.8-0.4 0.4-1.9-0.4-3.3-1.8s-3.2-2.5-4-2.5-3.8-2.3-6.5-5c-2.8-2.8-7.4-6.4-10.3-8.1-3.8-2.1-5.2376-4.1703-6.3376-3.4703-1 0.7-2.6624 2.1703-4.4624 1.2703-1.4-0.6-3-2.7-3.7-4.5-4.2219-8.6885-5.2046-9.1751-9-12.5l-0.2-3.4c2.6591 3.5717 6.5389-2.6805 8.7643 3.211 2.1978-3.2353 8.7357 8.989 10.436 9.489 3 0.9 4.0763 1.5763 4.0763-0.22371 4.6176-15.299-4.3281-25.787-9.5753-35.81-0.3-3.2 6.0485-6.4247 8.7485-11.225 1.8-3.3 7.2198-7.896 8.4198-10.896 1.1-3 3.9079-7.5336 4.7079-11.334 0.9-3.7-4.0773-10.412-4.0773-12.812 0-2.3-0.5-5.8-1.1-7.7-0.7-1.9-2.5-5.4-4.1-7.8-1.5-2.3-4.3-5.1-6.1-6.2-1.7-1.1-4.8-2-6.7-2s-5.8313 0.66873-8.1313 1.9687z"/>
<path class="s2" d="m-409.54 475.41c-0.6 1.3-4.1 4.1-7.9 6.3-3.7 2.2-9.5 6.3-12.9 9.1-3.3 2.7-7.5 6.8-9.2 9-1.8 2.1-4.1 6.6-5.2 9.9s-2.7 10.3-3.6 15.5c-0.8 5.2-2.2 16-3.1 24-1 8-2.3 17.2-3 20.5s-3.2 12.5-5.5 20.5-5.5 19.5-7 25.5-3.5 15-4.4 20-1.9 9.8-2.1 10.8c-0.5 1.6 5 1.7 105.3 1.6l201.29-0.4 0.0244-192.52c0.90616-4.2072-84.56-14.8-84.414-15.181 0.53333-0.86667 0.36667-1.0333-0.5-0.5-8.5252-3.1152-17.409-5.0337-26.899-4.9326-9.3773-0.13445-16.691 2.9413-23.182 7.2969-33.519 30.274-68.7 47.261-107.72 33.536z"/>
<path class="s0" d="m-499.63 255.25c0.8 4.9-2.8898 6.1907-2.0898 7.3907 0.8 1.3-0.50064 4.5567 0.0994 4.5567 0.6 0 3.2291-3.5929 6.6291-7.0929 3.7-3.7 5.9022-9.0978 6.9022-11.798z"/>
<path class="s0" d="m-497.4 256.95c0.8 4.9-2.8898 6.1907-2.0898 7.3907 0.8 1.3-0.50064 4.5567 0.0994 4.5567 0.6 0 3.2291-3.5929 6.6291-7.0929 3.7-3.7 5.9022-9.0978 6.9022-11.798z"/>
<path class="s0" d="m-449.89 244.88c1.1124 7.6844 13.208 21.153 14.321 23.035 7.2243 2.7163 0.41659 22.768 7.7552 11.037 0.44246-0.70728 4.0661-8.5621 2.3866-14.678 3.681-4.9313 5.5233-13.396 6.9138-17.631z"/>
<path class="s0" d="m-397.93 201.62c-20.427 2.4534-22.054 3.2986-44.4 11.3 0.2-0.5-1.5-0.3-3.9 0.3-2.3 0.6-7.4 2.6-11.2 4.6-3.8 1.9-9.7 5.5-13 7.9s-8.1 6.2-10.6 8.6-7.4 7.6-10.8 11.6c-3.3 3.9-8.8171 13.904-8.7171 14.404 0.2 0.6 7.2934-3.5889 10.435-5.5326 2.7-2.3 7.6976-4.2683 9.5976-4.8683 1.9-0.5 5.4241 0.56379 9.0241 0.56379s9.1681 0.9 13.268 1.9 11.376 4.7638 14.976 6.5638 8.311 4.5856 11.211 6.3856c2.8 1.9 11.93 9.5714 13.13 9.4714l46.876 52.512c0.6-1.7-1.3056-6.3715-0.7056-6.3715s5.4056 4.1715 7.3056 5.3715c2.4 1.6 3.4 3.1 3.4 4.8 0.1 1.4-18.185 9.687 1.3 3.8 45.846-13.851 10.485-28.856 3.6-45.7 1.7-2.9 4.3-5.2 7.2-6.7 2.5-1.3 6.1-2.4 8-2.4s5 0.9 6.7 2c1.8 1.1 4.6 3.9 6.1 6.2 1.6 2.4 3.4 5.9 4.1 7.8 0.6 1.9 1.1 5.4 1.1 7.7 0 2.4 1.7159 5.3673 0.81588 9.0673-0.8 3.8-2.4 9.3-3.5 12.3-1.2 3-6.0159 10.133-7.8159 13.433-17.19 13.228-2.7805 32.502 1.5 46.5 0.52636 1.7213-1.1626-2.2402-4.1626-3.1402-2.9889-8.8783-5.9688-7.5033-10.577-10.68l-7.7602 2.1203c0.29708 7.2087 2.1285 6.999 12.175 21.97 1.3162-1.0131 5.0452-2.9511 11.525 0.62968 2.9 1.7 7.5 5.3 10.3 8.1 2.7 2.7 5.7 5 6.5 5s2.6 1.1 4 2.5 2.9 2.2 3.3 1.8c0.5-0.5-0.7-3.1-2.5-5.8-1.9-2.8-5.3-6.2-7.6-7.8-2.3-1.5-4.5-3.7-4.8-5s0-2.8 1-3.7l5.6-10.5c0.5979-0.8 1.27-2.8262 1.799-2.226 1.3552 1.5374 1.1448 1.726 1.701 2.926 0.2 1.3 1.1 6.4 2 11.3 0.8 4.9 4.7006 7.7433 5.5006 8.9433 0.8 1.3-0.50064 4.5567 0.0994 4.5567 0.6 0 3.2291-3.5929 6.6291-7.0929 3.7-3.7 5.9022-9.0978 6.9022-11.798 1.2-3 1.1121-6.044 0.71207-8.544s-0.41422-2.8214-2.8433-6.3653c-2.4-2.6-4.4-5.3-4.5-6 0-0.6 0.6-1.5 1.2-1.8 0.7-0.4 0.92845-0.7319 3.4746-1.7396 5.144-0.11983 10.281 6.4672 12.501 8.7388 1.1-1 0.0241-7.9991-1.1759-10.599-0.8-1.8-3.5-5.5-6-8.2s-7-6.5-10-8.4-5.6-3.5-5.7-3.6 1.4-3.9 3.4-8.6 5-10.5 6.8-13 4.4-6.8 5.8-9.5c1.3-2.8 3-7.7 3.7-11 1-4.8 1-7.6 0-14-0.8-4.8-1-11.4-0.7-16.5 0.4-4.7 2.2-14.8 4.2-22.5 1.9-7.7 9.9915-22.533 9.9915-24.633-12.679-3.2569-28.034-9.3673-40.992-14.067-6.1-2.2-13.5-4.7-16.5-5.4-4.1-1-13.1-1.3-35-1.3-20.5 0.1-31.2 0.5-35 1.4z"/>
</g>
<path class="s0" d="m214 114.5c-20.427 2.4534-22.054 3.2986-44.4 11.3 0.2-0.5-1.5-0.3-3.9 0.3-2.3 0.6-7.4 2.6-11.2 4.6-3.8 1.9-9.7 5.5-13 7.9s-8.1 6.2-10.6 8.6-7.4 7.6-10.8 11.6c-3.3 3.9-8.8171 13.904-8.7171 14.404 0.2 0.6 7.2934-3.5889 10.435-5.5326 2.7-2.3 7.6976-4.2683 9.5976-4.8683 1.9-0.5 5.4241 0.56379 9.0241 0.56379s9.1681 0.9 13.268 1.9 11.376 4.7638 14.976 6.5638 8.311 4.5856 11.211 6.3856c2.8 1.9 11.93 9.5714 13.13 9.4714 23.164 18.68 40.266 82.026-29.824 124.31-0.4 0-1.3-1.1-2-2.5-0.8-1.6667-2.0333-2.5-3.7-2.5s-2.6667-0.66667-3-2c-0.3-1.1-1.7-2.9-3.3-3.9-1.5-1-6.8-3.5-11.7-5.5-5.9-2.3-10.2-4.8-12.5-7.1-1.9-1.9-3.8168-1.3257-4.8168-1.3257-0.9 0-3.4832-1.4743-5.1832-0.67429s-4.8 3.2-7 5.3c-2.7 2.5-4.2 4.8-4.6 7.2-0.3 1.9-0.1 4.6 0.3 5.9l3.9406 0.3673c16.266-6.882 27.709 10.883 39.559 11.733 1.3-0.1 3 0.7 3.9 1.7 1 1.1 1.9 4.5 2.3 9.1 1.0334 6.3501-1.9467 9.879-6.7 14-3.4829 3.7414-17.327 5.835-14.417 9.751 1.3876 1.867 2.0739 5.6282 9.7169 10.849 3.1 0.5 22.946-4.2402 32.146-6.0402 60.359 22.346 85.042-56.728 78.298-88.395-0.8-3.7-12.544-9.0725-11.944-15.673 0.4-5.5-3.099-10.292-2.599-12.092 0.6-1.7-1.3056-6.3715-0.7056-6.3715s5.4056 4.1715 7.3056 5.3715c2.4 1.6 3.4 3.1 3.4 4.8 0.1 1.4-18.185 9.687 1.3 3.8 45.846-13.851 10.485-28.856 3.6-45.7 1.7-2.9 4.3-5.2 7.2-6.7 2.5-1.3 6.1-2.4 8-2.4s5 0.9 6.7 2c1.8 1.1 4.6 3.9 6.1 6.2 1.6 2.4 3.4 5.9 4.1 7.8 0.6 1.9 1.1 5.4 1.1 7.7 0 2.4 1.7159 5.3673 0.81588 9.0673-0.8 3.8-2.4 9.3-3.5 12.3-1.2 3-6.0159 10.133-7.8159 13.433-17.19 13.228-2.7805 32.502 1.5 46.5 0.52636 1.7213-1.1626-2.2402-4.1626-3.1402-2.9889-8.8783-5.9688-7.5033-10.577-10.68l-7.7602 2.1203c0.29708 7.2087 2.1285 6.999 12.175 21.97 1.3162-1.0131 5.0452-2.9511 11.525 0.62968 2.9 1.7 7.5 5.3 10.3 8.1 2.7 2.7 5.7 5 6.5 5s2.6 1.1 4 2.5 2.9 2.2 3.3 1.8c0.5-0.5-0.7-3.1-2.5-5.8-1.9-2.8-5.3-6.2-7.6-7.8-2.3-1.5-4.5-3.7-4.8-5s0-2.8 1-3.7l5.6-10.5c0.5979-0.8 1.27-2.8262 1.799-2.226 1.3552 1.5374 1.1448 1.726 1.701 2.926 0.2 1.3 1.1 6.4 2 11.3 0.8 4.9 4.7006 7.7433 5.5006 8.9433 0.8 1.3-0.50064 4.5567 0.0994 4.5567 0.6 0 3.2291-3.5929 6.6291-7.0929 3.7-3.7 5.9022-9.0978 6.9022-11.798 1.2-3 1.1121-6.044 0.71207-8.544s-0.41422-2.8214-2.8433-6.3653c-2.4-2.6-4.4-5.3-4.5-6 0-0.6 0.6-1.5 1.2-1.8 0.7-0.4 0.92845-0.7319 3.4746-1.7396 5.144-0.11983 10.281 6.4672 12.501 8.7388 1.1-1 0.0241-7.9991-1.1759-10.599-0.8-1.8-3.5-5.5-6-8.2s-7-6.5-10-8.4-5.6-3.5-5.7-3.6 1.4-3.9 3.4-8.6 5-10.5 6.8-13 4.4-6.8 5.8-9.5c1.3-2.8 3-7.7 3.7-11 1-4.8 1-7.6 0-14-0.8-4.8-1-11.4-0.7-16.5 0.4-4.7 2.2-14.8 4.2-22.5 1.9-7.7 9.9915-22.533 9.9915-24.633-12.679-3.2569-28.034-9.3673-40.992-14.067-6.1-2.2-13.5-4.7-16.5-5.4-4.1-1-13.1-1.3-35-1.3-20.5 0.1-31.2 0.5-35 1.4z" fill="#010a4d"/>
<path class="s2" d="m256.03 301.74-65.687 60.581c-0.4 1.9 2.0535 3.8832 3.5535 5.6832 1.2 1.4 3.2 4.1 4.5 6s3 5.4 3.7 7.7c1.1 3.2 1.1 4.8 0.3 6.5-0.6 1.3-4.1 4.1-7.9 6.3-3.7 2.2-9.5 6.3-12.9 9.1-3.3 2.7-7.5 6.8-9.2 9-1.8 2.1-4.1 6.6-5.2 9.9s-2.7 10.3-3.6 15.5c-0.8 5.2-2.2 16-3.1 24-1 8-2.3 17.2-3 20.5s-3.2 12.5-5.5 20.5-5.5 19.5-7 25.5-3.5 15-4.4 20-1.9 9.8-2.1 10.8c-0.5 1.6 5 1.7 105.3 1.6l201.29-0.4 0.0244-192.52c0.90616-4.2072-84.56-14.8-84.414-15.181 0.53333-0.86667 0.36667-1.0333-0.5-0.5-8.5252-3.1152-17.409-5.0337-26.899-4.9326-9.3773-0.13445-16.691 2.9413-23.182 7.2969z" fill="url(#d)"/>
<path class="s2" d="m129.71 162.71c-3.5783 0.69995-6.952 1.7999-7.4632 2.2998-0.61341 0.59995-1.738 0.99992-2.6581 0.99992-0.92013 0-3.0671 1.1999-4.7028 2.7998-2.6581 2.2998-3.3738 3.9997-4.7028 12.199-0.92013 5.1996-2.2492 13.599-2.9648 18.499-0.61342 4.9996-1.2268 13.299-1.2268 18.499 0 5.1996 0.30671 10.499 0.61342 11.799 0.40894 1.1999 1.9425 2.9998 3.476 3.9997 1.8402 1.0999 2.8626 2.5998 2.8626 4.1997 0 6.859-21.971 32.616-19.963 40.144 0.51118 1.8999 3.5246 3.5502 5.7566 5.2293 2.8734 1.7096 11.965 8.2719 14.513 8.322 0.19643-3.7139 4.1113-2.7688 8.7904-4.0154 5.3379 1.4219 42.064 30.955 46.178 32.172 23.181 6.8545 62.468-91.815 45.766-69.576 1.7773-30.375 4.1236-78.899-49.719-83.272-8.3729-4.0982-5.436-3.158-7.6677-2.2998-0.40894-0.39997-3.7392-1.1446-7.0245-1.8956-7.4715-1.7082-12.45-1.7155-19.864-0.1042z" fill="url(#a)"/>
<path class="s0" d="m199.52 189.52c-28.042-21.642-4.7328 5.455-3.6204 7.3369 8.5479 28.754 10.798 43.575 10.314-1.5709 3.681-4.9313 5.5233-13.396 6.9138-17.631z" fill="#010a4d"/>
<path class="s0" d="m133.92 217.4c-2.212 1.7084-3.0674 1.9529-5.5063 7.691 0 4.5164 0.61379 8.0563 1.3503 8.0563 0.73654 0 1.4731-1.0986 1.8414-2.4413 0.36827-1.4648 3.199-3.3495 4.3628-4.2526 1.7784-1.3801 1.1248-1.2873 0.42479 6.4498 3.447 4.2845 2.3789 5.8586 3.56 4.5164 1.8029-2.6891 3.0496-2.1558 4.7556-5.2093 0.61378-1.2206 1.6278-2.4808 1.3823-4.5558-0.36827-2.1972 0-4.1502 1.1048-5.0047 0.8593-0.73239 2.9462-1.831 4.6648-2.3192 2.8234-0.97652 2.9462-0.85446 2.0869 1.953-0.73655 2.3192-0.61379 2.8075 0.98206 1.953 0.98206-0.48826 2.0869-0.85445 2.4552-0.85445s0.61379-1.0986 0.61379-2.4413-0.8593-3.2958-1.8414-4.2723c-1.3503-1.3427-4.542-1.831-11.907-1.7089-5.6468 0-8.7336 1.8301-10.329 2.4404z" stroke-width="1.2241"/>
<path class="s0" d="m145 200.5c-9.6698 1.8768-9.6456 1.9446-18.353 6.044-4.485 5.5373-13.083 11.73-12.331 11.797 4.2998 0.38215 10.225-1.8933 14.293-3.3384 5.448-1.9354 5.0246-3.7224 13.09-5.9023 15.361-1.2271 9.4366 2.1956 23.662 1.4841 4.0153-4.8278 9.3671-6.3259 7.7264-6.8133-5.5204-1.6401-20.964-3.1223-28.089-3.2708z"/>
<path class="s0" d="m106.1 280c-1.4 0.5-2.4 1.4-2.3 2s1.8 0.8 4 0.6c2-0.3 5.2-0.7 7-1 1.7-0.3 3-1 2.7-1.6s-2.4-1-4.7-0.9c-2.4 0-5.4 0.4-6.7 0.9z"/>
<path class="s2" d="m107.4 304.01c-1.9 1.9 1.703 3.0871 6.903 8.1871 4.4 4.3 6.9495 10.449 7.5495 14.149-0.77282 1.0268 11.574 5.0021 11.15 15.351-0.88476 4.4966-0.64183 6.0155 1.1713 9.4911 0.66222 1.2694 1.5996 2.0761 4.1743 2.0168 13.111-0.30193 32.673-36.772 7.7149-43.578l-10.49-7.1495c-0.6-0.3-3.4159-0.34158-3.4159 0.25842 0 0.5-0.0544 4.2614-1.1544 4.2614-1.1 0-3.7376-4.4862-6.4376-5.0862-2.6-0.6-6.4416-1.1376-8.3416-1.5376-2.7-0.7-7.3238 2.0367-8.8238 3.6367z" fill="url(#e)"/>
<path class="s1" d="m261.87 194.97c-2.3 1.2-5.7725 4.2137-7.3725 6.6137-1.7 2.4-3.3863 5.9588-3.6863 7.6588-0.6 2.7 0.59004 3.6588 4.39 6.5588 15.535 7.5514 28.019 15.409 6.7673 26.967-3.8484 2.1168-7.0115 3.1146-12.067 1.2327 0-1.7-1-3.2-3.4-4.8-1.9-1.2-8.0254-6.9573-8.5254-6.9573-0.6 0 2.5254 6.2573 1.9254 7.9573-0.0649 0.23362-2.7727 16.221 10.015 23.154 16.617 18.56-29.407 66.939-60.215 91.234-2.2248-0.90794-5.2951-0.29111-5.5951 0.60889-0.3 1.2 2.6951 6.103 4.5951 7.703l2.8 2.4c0.56081-16.381 61.172-3.094 54.157-38.169-0.0698-1.7627-1.5872-7.7102-0.53893-6.4836 2.5025 2.9282 6.0188 4.9185 6.0816 8.3523 0.80831 5.6544-0.37407 22.858 1.2559 18.109 5.2241-15.221 11.229 26.176 11.544 40.091 0 1.6-0.9 4.5-1.9 6.5-1 2.1-2.8208 2.6673-3.8208 3.6673l-6.8832 3.9535c3.3822 1.3048 5.5739 3.1491 7.304 4.8792 15.359-15.75 28.687-15.179 47.15-8.4418-2.3259-7.658-6.18-11.802-8.9498-18.558 9.0906-28.03 64.973-25.594 68.753-25.519 1.4433 0.0285-7.6003-3.4096-21.153-7.481-11-3.2-21.6-6.7-23.5-7.7-1.9-0.9-5.3-3.2-7.5-4.9-2.2-1.8-5-4.9-6.3-6.9-1.5-2.6-1.9-4.2-1.3-5.5 0.6-1.2 0.3-2.4-1-4.2-1.2-1.5-1.9291-6.283-2.8291-11.683-0.8-4.9-2.3709-9.817-2.5709-11.117-0.3-1.2-1.2-3.4812-2-3.4812s-1.067 2.1085-1.5 2.7812c-3.6142 5.6153-3.5294 4.9958-5.6 10.5-1 0.9-1.3 2.4-1 3.7s2.5 3.5 4.8 5c2.3 1.6 5.7 5 7.6 7.8 1.8 2.7 3 5.3 2.5 5.8-0.4 0.4-1.9-0.4-3.3-1.8s-3.2-2.5-4-2.5-3.8-2.3-6.5-5c-2.8-2.8-7.4-6.4-10.3-8.1-3.8-2.1-5.2376-4.1703-6.3376-3.4703-1 0.7-2.6624 2.1703-4.4624 1.2703-1.4-0.6-3-2.7-3.7-4.5-4.2219-8.6885-5.2046-9.1751-9-12.5l-0.2-3.4c2.6591 3.5717 6.5389-2.6805 8.7643 3.211 2.1978-3.2353 8.7357 8.989 10.436 9.489 3 0.9 4.0763 1.5763 4.0763-0.22371 4.6176-15.299-4.3281-25.787-9.5753-35.81-0.3-3.2 6.0485-6.4247 8.7485-11.225 1.8-3.3 7.2198-7.896 8.4198-10.896 1.1-3 3.9079-7.5336 4.7079-11.334 0.9-3.7-4.0773-10.412-4.0773-12.812 0-2.3-0.5-5.8-1.1-7.7-0.7-1.9-2.5-5.4-4.1-7.8-1.5-2.3-4.3-5.1-6.1-6.2-1.7-1.1-4.8-2-6.7-2s-5.8313 0.66873-8.1313 1.9687z" fill="#d0ddf1"/>
<path class="s2" d="m202.03 388.27c-0.6 1.3-4.1 4.1-7.9 6.3-3.7 2.2-9.5 6.3-12.9 9.1-3.3 2.7-7.5 6.8-9.2 9-1.8 2.1-4.1 6.6-5.2 9.9s-2.7 10.3-3.6 15.5c-0.8 5.2-2.2 16-3.1 24-1 8-2.3 17.2-3 20.5s-3.2 12.5-5.5 20.5-5.5 19.5-7 25.5-3.5 15-4.4 20-1.9 9.8-2.1 10.8c-0.5 1.6 5 1.7 105.3 1.6l201.29-0.4 0.0244-192.52c0.90616-4.2072-84.56-14.8-84.414-15.181 0.53333-0.86667 0.36667-1.0333-0.5-0.5-8.5252-3.1152-17.409-5.0337-26.899-4.9326-9.3773-0.13445-16.691 2.9413-23.182 7.2969-33.519 30.274-68.7 47.261-107.72 33.536z" fill="url(#c)"/>
<path class="s0" d="m111.24 172.34c0.8 4.9-2.8898 6.1907-2.0898 7.3907 0.8 1.3-0.50064 4.5567 0.0994 4.5567 0.6 0 3.2291-3.5929 6.6291-7.0929 3.7-3.7 5.9022-9.0978 6.9022-11.798z" fill="#010a4d"/>
<path class="s0" d="m120.03 165.84c0.8 4.9-2.8898 6.1907-2.0898 7.3907 0.8 1.3-0.50064 4.5567 0.0994 4.5567 0.6 0 3.2291-3.5929 6.6291-7.0929 3.7-3.7 5.9022-9.0978 6.9022-11.798z" fill="#010a4d"/>
<path class="s0" d="m161.67 157.74c1.1124 7.6844 13.208 21.153 14.321 23.035 7.2243 2.7163 0.41659 22.768 7.7552 11.037 0.44246-0.70728 4.0661-8.5621 2.3866-14.678 3.681-4.9313 5.5233-13.396 6.9138-17.631z" fill="#010a4d"/>
<path class="s0" d="m213.64 114.48c-20.427 2.4534-22.054 3.2986-44.4 11.3 0.2-0.5-1.5-0.3-3.9 0.3-2.3 0.6-7.4 2.6-11.2 4.6-3.8 1.9-9.7 5.5-13 7.9s-8.1 6.2-10.6 8.6-7.4 7.6-10.8 11.6c-3.3 3.9-8.8171 13.904-8.7171 14.404 0.2 0.6 7.2934-3.5889 10.435-5.5326 2.7-2.3 7.6976-4.2683 9.5976-4.8683 1.9-0.5 5.4241 0.56379 9.0241 0.56379s9.1681 0.9 13.268 1.9 11.376 4.7638 14.976 6.5638 8.311 4.5856 11.211 6.3856c2.8 1.9 11.93 9.5714 13.13 9.4714l46.876 52.512c0.6-1.7-1.3056-6.3715-0.7056-6.3715s5.4056 4.1715 7.3056 5.3715c2.4 1.6 3.4 3.1 3.4 4.8 0.1 1.4-18.185 9.687 1.3 3.8 45.846-13.851 10.485-28.856 3.6-45.7 1.7-2.9 4.3-5.2 7.2-6.7 2.5-1.3 6.1-2.4 8-2.4s5 0.9 6.7 2c1.8 1.1 4.6 3.9 6.1 6.2 1.6 2.4 3.4 5.9 4.1 7.8 0.6 1.9 1.1 5.4 1.1 7.7 0 2.4 1.7159 5.3673 0.81588 9.0673-0.8 3.8-2.4 9.3-3.5 12.3-1.2 3-6.0159 10.133-7.8159 13.433-17.19 13.228-2.7805 32.502 1.5 46.5 0.52636 1.7213-1.1626-2.2402-4.1626-3.1402-2.9889-8.8783-5.9688-7.5033-10.577-10.68l-7.7602 2.1203c0.29708 7.2087 2.1285 6.999 12.175 21.97 1.3162-1.0131 5.0452-2.9511 11.525 0.62968 2.9 1.7 7.5 5.3 10.3 8.1 2.7 2.7 5.7 5 6.5 5s2.6 1.1 4 2.5 2.9 2.2 3.3 1.8c0.5-0.5-0.7-3.1-2.5-5.8-1.9-2.8-5.3-6.2-7.6-7.8-2.3-1.5-4.5-3.7-4.8-5s0-2.8 1-3.7l5.6-10.5c0.5979-0.8 1.27-2.8262 1.799-2.226 1.3552 1.5374 1.1448 1.726 1.701 2.926 0.2 1.3 1.1 6.4 2 11.3 0.8 4.9 4.7006 7.7433 5.5006 8.9433 0.8 1.3-0.50064 4.5567 0.0994 4.5567 0.6 0 3.2291-3.5929 6.6291-7.0929 3.7-3.7 5.9022-9.0978 6.9022-11.798 1.2-3 1.1121-6.044 0.71207-8.544s-0.41422-2.8214-2.8433-6.3653c-2.4-2.6-4.4-5.3-4.5-6 0-0.6 0.6-1.5 1.2-1.8 0.7-0.4 0.92845-0.7319 3.4746-1.7396 5.144-0.11983 10.281 6.4672 12.501 8.7388 1.1-1 0.0241-7.9991-1.1759-10.599-0.8-1.8-3.5-5.5-6-8.2s-7-6.5-10-8.4-5.6-3.5-5.7-3.6 1.4-3.9 3.4-8.6 5-10.5 6.8-13 4.4-6.8 5.8-9.5c1.3-2.8 3-7.7 3.7-11 1-4.8 1-7.6 0-14-0.8-4.8-1-11.4-0.7-16.5 0.4-4.7 2.2-14.8 4.2-22.5 1.9-7.7 9.9915-22.533 9.9915-24.633-12.679-3.2569-28.034-9.3673-40.992-14.067-6.1-2.2-13.5-4.7-16.5-5.4-4.1-1-13.1-1.3-35-1.3-20.5 0.1-31.2 0.5-35 1.4z" fill="url(#b)"/>
</svg>
